<?xml version="1.0" standalone="no"?>
<!DOCTYPE svg PUBLIC "-//W3C//DTD SVG 1.1//EN" "http://www.w3.org/Graphics/SVG/1.1/DTD/svg11.dtd" >
<svg xmlns="http://www.w3.org/2000/svg" xmlns:xlink="http://www.w3.org/1999/xlink" version="1.1">
<metadata></metadata>
<defs>
<font id="amerika_proregular" horiz-adv-x="1431" >
<font-face units-per-em="2048" ascent="1638" descent="-410" />
<missing-glyph horiz-adv-x="716" />
<glyph horiz-adv-x="0" />
<glyph unicode="&#xd;" horiz-adv-x="716" />
<glyph horiz-adv-x="0" />
<glyph horiz-adv-x="0" />
<glyph unicode=" "  horiz-adv-x="716" />
<glyph unicode="&#x09;" horiz-adv-x="716" />
<glyph unicode="&#xa0;" horiz-adv-x="716" />
<glyph unicode="!" horiz-adv-x="538" d="M143 1536h252l-78 -1229h-104zM147 106q0 47 27.5 83t93.5 36t93.5 -35.5t27.5 -85.5q0 -49 -28.5 -81.5t-92.5 -32.5q-66 0 -93.5 34.5t-27.5 81.5z" />
<glyph unicode="&#x22;" horiz-adv-x="593" d="M61 1536h185l-45 -512h-76zM348 1536h184l-45 -512h-77z" />
<glyph unicode="#" horiz-adv-x="1165" d="M61 791v90h244l51 256h-204v88h215l65 311h109l-60 -311h277l59 311h111l-54 -311h230v-88h-248l-45 -256h203v-90h-209l-49 -267h-109l43 267h-287l-51 -267h-106l49 267h-234zM420 881h280l48 256h-283z" />
<glyph unicode="$" horiz-adv-x="1052" d="M102 1063q0 129 85 209t264 96v168h145v-172q86 -6 165 -23.5t167 -52.5q-6 -31 -12.5 -69.5t-11.5 -79.5t-10 -80t-9 -70l-78 2l2 137q0 31 -18.5 53.5t-49 39t-68.5 28t-77 17.5v-416l141 -57q115 -47 164 -135.5t49 -178.5q0 -72 -27.5 -130t-75.5 -101t-112.5 -67.5 t-138.5 -26.5v-154h-145v156q-86 10 -168 29.5t-164 45.5q6 31 12 70t11 81t9.5 81t8.5 69h78v-139q0 -35 16 -57.5t45 -37.5t68 -23.5t84 -14.5v459l-97 35q-133 47 -192.5 125.5t-59.5 183.5zM274 1094q0 -49 51.5 -96.5t125.5 -84.5v355q-76 -16 -128.5 -58t-48.5 -116z M596 256q72 10 120 49t48 125q0 33 -8 66.5t-27.5 66.5t-52.5 59.5t-80 45.5v-412z" />
<glyph unicode="%" horiz-adv-x="1771" d="M61 1032v103q0 70 25 141.5t71 128.5t113.5 94t151.5 37q88 0 155.5 -38t113.5 -97.5t69.5 -130t23.5 -135.5v-103q0 -68 -23.5 -142.5t-69.5 -138t-112.5 -105.5t-152.5 -42t-154.5 42t-114.5 105.5t-71 138.5t-25 142zM223 1014q4 -57 21.5 -113.5t45 -101.5t61.5 -73 t71 -28q39 0 74.5 31t63.5 77t45.5 102.5t17.5 105.5v135q0 53 -17.5 105.5t-45.5 94.5t-64.5 68.5t-73.5 26.5t-73 -25.5t-63.5 -67.5t-45 -94.5t-17.5 -107.5v-135zM416 0q-2 0 31.5 65.5t89 174t127 246t145.5 282.5q174 338 399 768h178q-242 -430 -430 -768 q-80 -145 -158.5 -282.5t-140 -246t-99.5 -173.5l-38 -66h-104zM987 428v102q0 70 24.5 141.5t70.5 129t114 94.5t152 37q88 0 155.5 -38t113.5 -97.5t69.5 -130t23.5 -136.5v-102q0 -68 -23.5 -142.5t-69.5 -138t-112.5 -105.5t-152.5 -42t-155 42t-115 105.5t-70.5 138 t-24.5 142.5zM1149 410q4 -57 21.5 -113.5t45 -101.5t61.5 -73t71 -28q39 0 74.5 31t63 77t45 102t17.5 106v135q0 53 -17.5 105t-45 94t-64.5 69t-73 27q-37 0 -73 -26t-63.5 -67.5t-45 -94t-17.5 -107.5v-135z" />
<glyph unicode="&#x26;" horiz-adv-x="1374" d="M41 1442v94h965v-113h-408q-47 0 -73.5 -19.5t-41 -59t-17.5 -101t-3 -145.5v-228h485v271h236v-271h147v-94h-147v-360q0 -92 2 -152.5t16.5 -95.5t45 -48.5t85.5 -13.5l-2 -106h-446q-141 0 -262 9t-209 59.5t-137.5 159t-49.5 307.5v581q0 94 -3 156.5t-19.5 100.5 t-49 54.5t-94.5 16.5zM463 469q0 -84 7 -149.5t33.5 -111.5t81 -70.5t148.5 -24.5q78 0 121 17t64.5 54t25.5 95.5t4 138.5v358h-485v-307z" />
<glyph unicode="'" horiz-adv-x="307" d="M61 1536h185l-45 -512h-76z" />
<glyph unicode="(" horiz-adv-x="720" d="M102 754q0 299 179 544q168 229 436 334l4 -4q-393 -319 -393 -872q0 -557 393 -877l-4 -4q-266 104 -436 336q-178 242 -179 543z" />
<glyph unicode=")" horiz-adv-x="720" d="M0 -100q393 319 393 876q0 553 -393 873l4 4q268 -104 436 -334q178 -246 178 -545q0 -301 -178 -543q-170 -231 -436 -335z" />
<glyph unicode="*" horiz-adv-x="790" d="M61 1063l236 96l-231 113l114 176l182 -191l50 265l192 -80l-125 -225l250 45v-201l-254 41l121 -217l-197 -97l-37 273l-192 -182z" />
<glyph unicode="+" horiz-adv-x="1056" d="M61 584v133h402v399h131v-399h401v-133h-401v-400h-131v400h-402z" />
<glyph unicode="," horiz-adv-x="378" d="M61 115q0 49 30 88t93 39q53 0 93 -37t40 -119q0 -35 -9 -72t-35.5 -80t-71.5 -93t-119 -107q-6 4 -8 12q-2 6 -2 12t10 15q6 8 30.5 31.5t50 54t44 65.5t12.5 66q-78 -4 -118 31.5t-40 93.5z" />
<glyph unicode="-" horiz-adv-x="634" d="M61 563v154h512v-154h-512z" />
<glyph unicode="." horiz-adv-x="364" d="M61 106q0 47 30 83t91 36q66 0 93.5 -37.5t27.5 -83.5q0 -47 -28.5 -80.5t-92.5 -33.5q-63 0 -92 34.5t-29 81.5z" />
<glyph unicode="/" horiz-adv-x="1153" d="M2 -154q-2 0 40 76t109.5 201t155.5 283.5t179.5 325.5t179.5 326t156.5 283.5t110.5 200.5l42 76h178l-45 -76t-117.5 -200.5t-167 -283.5t-191.5 -326t-191.5 -325.5t-168 -283.5t-118.5 -201t-48 -76h-104z" />
<glyph unicode="0" horiz-adv-x="1390" d="M102 680v215q0 123 40 240.5t117 212t187.5 151.5t249.5 57q143 0 254 -60t185.5 -155.5t113.5 -213t39 -232.5v-215q0 -117 -39 -241t-114.5 -226t-185 -167.5t-251.5 -65.5q-141 0 -251.5 66.5t-187.5 168.5t-117 226t-40 239zM338 655q0 -92 25.5 -190t71.5 -179 t112.5 -133.5t146.5 -52.5q78 0 143.5 48.5t113.5 127t75 178t27 201.5v265q0 100 -28 193t-76 165t-112.5 115t-138.5 43q-72 0 -136 -40t-114.5 -111t-80 -165t-29.5 -200v-265z" />
<glyph unicode="1" horiz-adv-x="690" d="M41 0v92q68 0 105.5 16.5t56 54.5t21.5 100.5t3 156.5v696q0 94 -3 156.5t-19.5 100.5t-49 54.5t-94.5 16.5h-20v92h422v-1116q0 -94 3 -156.5t19.5 -100.5t49 -54.5t94.5 -16.5h20v-92h-608z" />
<glyph unicode="2" horiz-adv-x="1253" d="M102 1442q137 51 273.5 82.5t267.5 31.5q127 0 222.5 -31.5t158.5 -86t95 -127t32 -152.5q0 -90 -34 -159.5t-78 -122t-89 -85t-67 -44.5q-80 -45 -164 -73t-152.5 -66t-113.5 -100.5t-45 -176.5v-203h397q106 0 146 25.5t42 76.5l2 144h103v-375h-938v391 q0 55 17.5 113.5t49 112t76.5 95.5t98 64l324 131q55 23 92 56.5t58.5 72.5t30.5 78t9 74q0 61 -22.5 106t-61 75t-92 44t-116.5 14q-59 0 -124 -10t-120 -32.5t-91 -58.5t-36 -87l2 -174h-98q-4 39 -9.5 88t-12.5 100.5t-15 100.5t-17 88z" />
<glyph unicode="3" horiz-adv-x="1095" d="M61 1210v326h963v-233l-385 -406q92 0 166 -29.5t124 -84t77.5 -128t27.5 -161.5q0 -106 -39 -200.5t-109.5 -164.5t-167.5 -109.5t-216 -39.5q-92 0 -164 23.5t-122 56t-81 69.5t-43 64l137 104q49 -92 107 -137t156 -45q63 0 123.5 21.5t105.5 65.5t72.5 114.5 t27.5 168.5q0 59 -14 111.5t-60.5 92.5t-131.5 63.5t-224 23.5l420 623h-528q-49 0 -75 -10.5t-38 -34t-14 -59t-2 -85.5h-93z" />
<glyph unicode="4" horiz-adv-x="1275" d="M61 467l693 1069h235v-1020q49 0 77 11.5t40 36t14 60t2 85.5h92v-308h-225q0 -88 4 -147t20.5 -95t49.5 -51.5t92 -15.5h21v-92h-607v92q66 0 103 15.5t55 51.5t22.5 95t4.5 147h-670zM283 516h471v729z" />
<glyph unicode="5" horiz-adv-x="1181" d="M143 127l115 82q90 -109 252 -109q66 0 126 20.5t106 64.5t74 116t28 174v72q0 100 -19.5 172t-50.5 117t-68.5 65.5t-74.5 20.5q-55 0 -112.5 -47.5t-98.5 -161.5h-248v823h844v-377h-103l-2 144q-2 53 -46 78.5t-142 25.5h-315l-2 -487q53 68 126.5 93t137.5 25 q63 0 135 -24.5t133 -82t101 -154.5t40 -240q0 -137 -39 -240.5t-110.5 -174.5t-173 -106.5t-224.5 -35.5q-39 0 -90 5t-104 20t-104.5 44t-90.5 78z" />
<glyph unicode="6" horiz-adv-x="1234" d="M102 614q0 102 16.5 210t52.5 210.5t90 193.5t130 159.5t174.5 108.5t218.5 40l35 -43q-100 -29 -180 -72t-137.5 -109.5t-93 -157.5t-48.5 -216q41 37 113 60.5t170 23.5q129 0 224.5 -41t159 -111.5t95 -163t31.5 -194.5q0 -100 -30.5 -195.5t-95 -170t-164 -120.5 t-238.5 -46q-160 0 -261.5 58t-160 150.5t-80 205t-21.5 220.5zM344 455q0 -102 20.5 -171t58.5 -110t90 -57.5t116 -16.5q66 0 119 17.5t91 58.5t58.5 108.5t20.5 170.5v92q0 100 -20.5 168.5t-58.5 109.5t-91.5 58.5t-118.5 17.5q-63 0 -115.5 -16.5t-90.5 -57.5 t-58.5 -109.5t-20.5 -170.5v-92z" />
<glyph unicode="7" horiz-adv-x="1044" d="M41 1210v326h963v-82l-693 -1454h-245l761 1401h-565q-49 0 -74.5 -11.5t-38 -34t-14.5 -59t-2 -86.5h-92z" />
<glyph unicode="8" horiz-adv-x="1208" d="M82 438q0 68 16.5 131.5t52 119.5t90 101.5t130.5 73.5q-96 47 -141.5 135t-45.5 185q0 72 24.5 139.5t77 119.5t132 82.5t192.5 30.5t192 -30.5t129 -82.5t73.5 -120t23.5 -139q0 -102 -44 -188.5t-136 -133.5q139 -53 208.5 -170t69.5 -258q0 -90 -29.5 -172 t-92 -145.5t-159.5 -100t-235 -36.5q-139 0 -238.5 37.5t-164 102t-95 146.5t-30.5 172zM317 438q0 -92 20.5 -155.5t58.5 -102.5t90.5 -56.5t117.5 -17.5q63 0 116.5 17.5t91.5 56.5t58.5 102.5t20.5 155.5t-20.5 154.5t-58.5 100.5t-90 54.5t-116 16.5q-133 0 -211 -73 t-78 -253zM375 1171q0 -61 18.5 -111t50 -85t73.5 -53.5t91 -18.5q59 0 102.5 25.5t72 65.5t42 89.5t13.5 98.5q0 61 -19.5 109t-52.5 82t-76 51.5t-90 17.5q-100 0 -162.5 -76t-62.5 -195z" />
<glyph unicode="9" horiz-adv-x="1214" d="M61 1024q0 100 31 195.5t95.5 170t164 120.5t238.5 46q160 0 261 -58t159.5 -150.5t80 -205t21.5 -220.5q0 -102 -16.5 -210t-52 -210.5t-90 -193.5t-130 -159.5t-174 -108.5t-219.5 -40l-35 43q100 29 180 72t137.5 109.5t93.5 157.5t48 216q-66 -43 -130.5 -63.5 t-150.5 -20.5q-129 0 -225 41t-159.5 111.5t-95.5 163t-32 194.5zM297 989q0 -102 20.5 -169.5t58.5 -108.5t91 -58.5t119 -17.5q63 0 115.5 16.5t90 57.5t58 109.5t20.5 170.5v92q0 102 -20.5 171t-58 110t-90 57.5t-115.5 16.5q-66 0 -119 -17.5t-91 -58.5t-58.5 -109.5 t-20.5 -169.5v-92z" />
<glyph unicode=":" horiz-adv-x="446" d="M102 311q0 49 29 84t92 35q66 0 93.5 -36t27.5 -83t-27.5 -81.5t-93.5 -34.5q-63 0 -92 33.5t-29 82.5zM102 868q0 49 29 84t92 35q66 0 93.5 -36t27.5 -83t-27.5 -81.5t-93.5 -34.5q-63 0 -92 33.5t-29 82.5z" />
<glyph unicode=";" horiz-adv-x="460" d="M102 319q0 49 30 88t93 39q53 0 93 -36.5t40 -118.5q0 -35 -9 -72t-35.5 -80t-71.5 -93t-119 -107q-6 4 -8 12q-2 6 -2 12t10 14q6 8 30.5 32t50 54.5t44 65.5t12.5 66q-78 -4 -118 31.5t-40 92.5zM104 856q0 49 29 84t92 35q66 0 93.5 -36t27.5 -83t-27.5 -82t-93.5 -35 q-63 0 -92 34t-29 83z" />
<glyph unicode="&#x3c;" horiz-adv-x="1071" d="M61 553v176l949 389v-176l-785 -301l785 -326v-155z" />
<glyph unicode="=" horiz-adv-x="944" d="M61 393v154h822v-154h-822zM61 758v153h822v-153h-822z" />
<glyph unicode="&#x3e;" horiz-adv-x="1071" d="M61 160v155l785 326l-785 301v176l949 -389v-176z" />
<glyph unicode="?" horiz-adv-x="1171" d="M61 1440q137 49 273.5 82.5t267.5 33.5q127 0 222.5 -33.5t159 -90t95 -131t31.5 -154.5q0 -88 -33 -158.5t-78 -122t-88.5 -84.5t-68.5 -47q-66 -37 -113 -67.5t-75.5 -67.5t-42 -88t-13.5 -131v-72h-248v158q0 133 75 241.5t220 170.5q25 10 64 29.5t75.5 53t63 85 t26.5 127.5q0 129 -84.5 192.5t-232.5 63.5q-59 0 -120.5 -11.5t-112 -34t-82 -59.5t-31.5 -88l2 -174h-98q-4 39 -9.5 88t-12.5 100.5t-15 100.5t-17 88zM354 106q0 47 29 83t92 36q66 0 93.5 -36.5t27.5 -82.5q0 -47 -28.5 -81.5t-92.5 -34.5q-63 0 -92 34.5t-29 81.5z " />
<glyph unicode="@" horiz-adv-x="1990" d="M102 459q0 197 75 371t207 305t312.5 207.5t390.5 76.5q180 0 329 -57t253.5 -155.5t161.5 -230.5t57 -282q0 -88 -19.5 -169t-52 -149.5t-77.5 -125.5t-97 -100q-90 -74 -196.5 -102t-243.5 -28q-35 0 -57.5 1.5t-42.5 3.5l69 225q-57 -66 -101 -109t-85 -70.5t-83 -39 t-93 -11.5q-172 0 -252 110t-80 290q0 129 39 236.5t112.5 185.5t181.5 121t247 43q205 0 299 -91.5t94 -255.5q0 -117 -37 -236.5t-72 -244.5q10 -2 22.5 -3t29.5 -1q92 0 164.5 48t124 124t78 171t26.5 188q0 127 -49 238.5t-140.5 194.5t-219.5 131t-285 48 q-182 0 -342 -64.5t-278 -179.5t-186.5 -270.5t-68.5 -337.5q0 -166 57.5 -303t164 -235.5t256 -154t333.5 -55.5q176 0 327.5 51.5t295.5 155.5l30 -69q-158 -117 -318.5 -169.5t-346.5 -52.5q-211 0 -380 62.5t-288 173.5t-182.5 261.5t-63.5 328.5zM682 383 q0 -131 43 -191.5t131 -60.5q94 0 167 60.5t122 146.5t73.5 182t24.5 168q0 115 -57.5 161t-145.5 46q-104 0 -172.5 -51t-110.5 -128t-58.5 -166t-16.5 -167z" />
<glyph unicode="A" horiz-adv-x="1640" d="M41 0v92h20q61 0 94 16.5t49.5 54.5t19.5 100.5t3 156.5v598q0 252 154 395t440 143q287 0 439.5 -144t152.5 -394v-598q0 -94 3 -156.5t19.5 -100.5t49.5 -54.5t94 -16.5h20v-92h-606v92q68 0 106 16.5t55 54.5t20.5 100.5t3.5 156.5v262h-715v-262q0 -94 3 -156.5 t20.5 -100.5t55.5 -54.5t105 -16.5v-92h-606zM463 776h715v303q0 102 -32 171t-83 110t-113.5 57.5t-126.5 16.5q-66 0 -130 -17.5t-115.5 -58.5t-83 -109.5t-31.5 -169.5v-303z" />
<glyph unicode="B" horiz-adv-x="1302" d="M41 1444v92h608q248 0 381 -101.5t133 -277.5q0 -117 -58 -204t-165 -136q139 -43 210 -131t71 -242q0 -113 -38 -196.5t-105.5 -139t-160 -82t-200.5 -26.5h-674v92q68 0 105.5 16.5t55 54.5t20.5 100.5t3 156.5v696q0 94 -3 156.5t-19.5 100.5t-49 54.5t-94.5 16.5h-20 zM463 420q0 -92 3 -154.5t21.5 -101.5t55.5 -55.5t104 -16.5q174 0 261 93.5t87 248.5q0 78 -23.5 136.5t-78.5 98.5t-143.5 60.5t-217.5 20.5q-35 0 -52 -4.5t-17 -22.5v-303zM463 887q0 -23 14.5 -27t44.5 -4q117 0 198 16.5t131 51t72.5 89t22.5 132.5q0 143 -81 201.5 t-269 58.5q-47 0 -70.5 -4t-33.5 -19q-10 -12 -16.5 -44.5t-9.5 -71.5t-3 -79v-71v-229z" />
<glyph unicode="C" horiz-adv-x="1523" d="M102 774q0 180 63.5 325.5t174.5 247t259.5 155.5t318.5 54q117 0 260 -25.5t284 -74.5q-8 -39 -16 -88t-15.5 -100t-12.5 -100.5t-9 -88.5h-98l2 174q0 51 -42 86t-103.5 56.5t-131 31t-125.5 9.5q-129 0 -232.5 -48.5t-174 -131t-108.5 -197.5t-38 -246 q0 -147 47.5 -273t132.5 -218.5t204.5 -144.5t265.5 -52q117 0 222 35t204 100l-11 -156q-98 -55 -232 -89.5t-269 -34.5q-160 0 -308.5 53t-262 155.5t-181.5 250t-68 335.5z" />
<glyph unicode="D" horiz-adv-x="1499" d="M41 1444v92h606q180 0 319.5 -53t234.5 -149.5t145.5 -233.5t50.5 -305q0 -172 -49.5 -317.5t-134.5 -252t-197.5 -166t-241.5 -59.5h-731v92q68 0 105.5 16.5t55 54.5t20.5 100.5t3 156.5v696q0 94 -3 156.5t-19.5 100.5t-49 54.5t-94.5 16.5h-20zM463 420q0 -78 1 -129 t6 -84t13.5 -49.5t24.5 -24.5q14 -8 34.5 -12t43 -6t44 -2h34.5q174 0 273 63.5t147.5 154.5t59.5 189t11 170q0 176 -30.5 309.5t-98.5 221.5t-177 132t-269 44q-51 0 -67.5 -6.5t-27.5 -22.5q-10 -20 -16 -65.5t-6 -100.5v-782z" />
<glyph unicode="E" horiz-adv-x="1230" d="M-20 1444v92h1210v-113h-653q-49 0 -77 -19.5t-41 -59t-15.5 -101t-2.5 -145.5v-228h560v-94h-560v-305q0 -102 32 -170t82 -108.5t113.5 -58t127.5 -17.5h434v-117h-434q-289 0 -439.5 144.5t-150.5 392.5v579q0 94 -3 156.5t-19.5 100.5t-49.5 54.5t-94 16.5h-20z" />
<glyph unicode="F" horiz-adv-x="1083" d="M41 0v92h20q61 0 94 16.5t49.5 54.5t19.5 100.5t3 156.5v579q0 248 150.5 391.5t439.5 145.5h205v-119h-205q-63 0 -126.5 -17.5t-114 -58.5t-82 -109.5t-31.5 -168.5v-289h559v-94h-559v-260q0 -84 2 -146.5t14.5 -102.5t40 -59.5t78.5 -19.5h57v-92h-614z" />
<glyph unicode="G" horiz-adv-x="1601" d="M102 745q0 180 55.5 329t153 256.5t229.5 166.5t283 59q57 0 125 -8t133.5 -20t127 -25.5t110.5 -25.5v-54.5t3 -102.5t9 -133t19 -145h-62q-53 197 -162.5 288t-263.5 91q-111 0 -201 -45t-154.5 -130t-99 -208t-34.5 -276q0 -145 31.5 -261t91 -197t147.5 -125t203 -44 q76 0 148.5 18.5t125.5 53.5v235q0 90 -4 138.5t-22.5 71t-56.5 26.5t-105 4v92h608v-92q-68 0 -105.5 -11.5t-55 -43t-20.5 -89t-3 -151.5v-387q0 -90 3 -150.5t19.5 -97.5t49 -53t92.5 -16h20v-93h-606v93q68 0 104.5 16t55 53t22.5 97.5t4 150.5v88q-70 -53 -151.5 -80.5 t-186.5 -27.5q-154 0 -278.5 57t-213.5 158.5t-138.5 242t-49.5 307.5z" />
<glyph unicode="H" horiz-adv-x="1478" d="M-20 1444v92h606v-92q-68 0 -106 -16.5t-55 -54.5t-20.5 -100.5t-3.5 -156.5v-356h678v356q0 94 -3 156.5t-19.5 100.5t-49 54.5t-94.5 16.5h-20v92h606v-92q-68 0 -105.5 -16.5t-55 -54.5t-20.5 -100.5t-3 -156.5v-1116h-236v666h-678v-666h-235v1116q0 94 -3 156.5 t-19.5 100.5t-49.5 54.5t-94 16.5h-20z" />
<glyph unicode="I" horiz-adv-x="690" d="M41 1444v92h606v-92q-68 0 -105.5 -16.5t-55 -54.5t-20.5 -100.5t-3 -156.5v-696q0 -94 3 -156.5t19.5 -100.5t49 -54.5t94.5 -16.5h20v-92h-606v92q68 0 105.5 16.5t55 54.5t20.5 100.5t3 156.5v696q0 94 -3 156.5t-19.5 100.5t-49 54.5t-94.5 16.5h-20z" />
<glyph unicode="J" horiz-adv-x="606" d="M-213 -279q20 -4 40.5 -7t43.5 -3q55 0 114.5 17.5t108.5 59.5t80 109.5t31 168.5v1050q0 94 -3 156.5t-20.5 100.5t-55.5 54.5t-106 16.5v92h607v-92h-21q-61 0 -94 -16.5t-49.5 -54.5t-19.5 -100.5t-3 -156.5v-987q0 -125 -39 -224.5t-113.5 -169t-182 -107.5 t-244.5 -38q-20 0 -39 1t-35 3v127z" />
<glyph unicode="K" horiz-adv-x="1542" d="M41 1444v92h606v-92q-68 0 -105.5 -16.5t-55 -54.5t-20.5 -100.5t-3 -156.5v-282h319q53 0 103.5 14t88.5 50t60.5 93.5t22.5 143.5v30q0 94 -3 149.5t-20.5 84t-55.5 37t-106 8.5v92h607v-92h-21q-59 0 -92 -9.5t-49.5 -38t-20.5 -79.5t-4 -133q0 -150 -65.5 -255.5 t-182.5 -158.5q123 -55 197 -169t74 -273q0 -74 5 -119t22.5 -71.5t50 -36t88.5 -9.5h20v-92h-606v92q68 0 105.5 8.5t55 37t20.5 83.5t3 150v37q0 86 -26.5 143t-68.5 92t-95 49.5t-107 14.5h-319v-287q0 -94 3 -156.5t19.5 -100.5t49 -54.5t94.5 -16.5h20v-92h-606v92 q68 0 105.5 16.5t55 54.5t20.5 100.5t3 156.5v696q0 94 -3 156.5t-19.5 100.5t-49 54.5t-94.5 16.5h-20z" />
<glyph unicode="L" horiz-adv-x="1228" d="M-20 1444v92h585v-92h-28q-45 0 -72 -19.5t-41 -59.5t-18.5 -102.5t-4.5 -146.5v-655q0 -102 32 -170t82 -109t113.5 -58.5t127.5 -17.5h432v-106h-432q-289 2 -439.5 145.5t-150.5 391.5v579q0 94 -3 156.5t-19.5 100.5t-49.5 54.5t-94 16.5h-20z" />
<glyph unicode="M" horiz-adv-x="1957" d="M41 0v92h20q61 0 94 16.5t49.5 54.5t19.5 100.5t3 156.5v586q0 106 48.5 198t132.5 162t196.5 114t241.5 56q-10 72 -44 99.5t-114 27.5h-20v92h606v-92q-90 0 -128 -29.5t-48 -97.5q125 -6 238.5 -48t201.5 -111.5t140.5 -164t52.5 -206.5v-586q0 -94 3 -156.5 t19 -100.5t49 -54.5t94 -16.5h21v-92h-606v92q68 0 105.5 16.5t55 54.5t20.5 100.5t3 156.5v649q0 86 -39 147.5t-98.5 103.5t-131 65.5t-136.5 31.5v-815q0 -94 3 -152.5t19 -91t49 -44t94 -11.5h21v-92h-606v92q68 0 105.5 11.5t55 44t20.5 91t3 152.5v815 q-70 -8 -139.5 -33.5t-126 -69.5t-91 -104.5t-34.5 -140.5v-649q0 -94 3 -156.5t20.5 -100.5t55.5 -54.5t105 -16.5v-92h-606z" />
<glyph unicode="N" horiz-adv-x="1640" d="M41 0v92h20q61 0 94 16.5t49.5 54.5t19.5 100.5t3 156.5v598q0 252 154 395t448 143q137 0 246 -37.5t184.5 -107.5t114.5 -169t39 -224v-598q0 -94 3 -156.5t19.5 -100.5t49.5 -54.5t94 -16.5h20v-92h-606v92q68 0 106 16.5t55 54.5t20.5 100.5t3.5 156.5v661 q0 102 -32 171t-83 110t-115.5 57.5t-128.5 16.5q-63 0 -126.5 -17.5t-115 -58.5t-83 -109.5t-31.5 -169.5v-661q0 -94 3 -156.5t20.5 -100.5t55.5 -54.5t105 -16.5v-92h-606z" />
<glyph unicode="O" horiz-adv-x="1472" d="M143 518v500q0 252 154 395t440 143q287 0 439.5 -144t152.5 -394v-500q0 -250 -152.5 -394t-439.5 -144t-440.5 143t-153.5 395zM379 455q0 -102 31.5 -170t83 -109t116 -58.5t129.5 -17.5q63 0 126 16.5t114 57.5t83 109.5t32 171.5v626q0 102 -32 171t-83 110 t-113.5 57.5t-126.5 16.5q-66 0 -130 -17.5t-115.5 -58.5t-83 -109.5t-31.5 -169.5v-626z" />
<glyph unicode="P" horiz-adv-x="1472" d="M41 0v92q68 0 105.5 16.5t55 54.5t20.5 100.5t3 156.5v624q0 119 41 214.5t119 161t187.5 101t248.5 35.5q276 0 433 -136t157 -384t-156.5 -384t-433.5 -136q-106 0 -197.5 21.5t-162.5 64.5v-182q0 -94 3 -156.5t19.5 -100.5t49 -54.5t94.5 -16.5h20v-92h-606zM461 961 q0 -94 32.5 -157t85 -99.5t116 -52t124.5 -15.5q63 0 127 16.5t115 57.5t83 109.5t32 170.5v90q0 102 -32 171t-83 110t-113.5 57.5t-126.5 16.5q-66 0 -130 -17.5t-115.5 -58.5t-83 -109.5t-31.5 -169.5v-120z" />
<glyph unicode="Q" horiz-adv-x="1472" d="M143 528v490q0 252 154 395t448 143q137 0 246 -37.5t184.5 -107.5t114.5 -169t39 -224v-490q0 -227 -124 -363t-353 -165q0 -92 3 -153.5t19.5 -97.5t49 -51t94.5 -15h20v-93h-606v93q68 0 105.5 14t55 50t20.5 97.5t3 155.5q-229 31 -351 168t-122 360zM379 465 q0 -78 19.5 -137.5t51 -100.5t74.5 -66.5t92 -37.5v70q0 94 -3 156.5t-19 100t-49 54t-94 16.5h-21v92h606v-92q-68 0 -105.5 -16.5t-55 -54t-20.5 -100t-3 -156.5v-72q49 12 92 37.5t77 66.5t53.5 100.5t19.5 139.5v614q0 102 -32 171t-83 110t-115.5 57.5t-128.5 16.5 q-63 0 -126.5 -17.5t-115 -58.5t-83 -109.5t-31.5 -169.5v-614z" />
<glyph unicode="R" horiz-adv-x="1492" d="M41 0v92q68 0 105.5 16.5t55 54.5t20.5 100.5t3 156.5v624q0 119 41 214.5t119 161t188.5 101t251.5 35.5q274 0 430 -131t156 -370q0 -98 -27.5 -184.5t-80 -154t-128 -114.5t-169.5 -67q68 -37 105.5 -76t58 -80t25.5 -87t9 -102q2 -31 6 -49t19.5 -29.5t48.5 -15.5 t92 -4h4v-92h-590v92q109 0 146 33t37 119q0 57 -13.5 99t-44 72.5t-79 55.5t-117.5 49q-59 20 -128 50t-124 83v-233q0 -94 3 -156.5t19.5 -100.5t49 -54.5t94.5 -16.5h20v-92h-606zM461 961q0 -94 32.5 -157t85 -99.5t116 -52t124.5 -15.5q63 0 127 16.5t115 57.5 t83 109.5t32 170.5v90q0 102 -32 171t-83 110t-113.5 57.5t-126.5 16.5q-66 0 -130 -17.5t-115.5 -58.5t-83 -109.5t-31.5 -169.5v-120z" />
<glyph unicode="S" horiz-adv-x="1273" d="M102 82q8 39 16.5 88t15.5 100.5t12.5 100.5t9.5 88h98l-2 -174q0 -49 33.5 -84t86 -55.5t117 -30t125.5 -9.5q147 0 234.5 54.5t87.5 181.5q0 39 -9 83t-32 85t-59.5 76t-90.5 55l-317 117q-168 61 -240.5 160.5t-72.5 240.5q0 186 121.5 291.5t379.5 105.5 q129 0 264.5 -26.5t262.5 -75.5q-8 -39 -15.5 -88t-14.5 -100.5t-13 -100.5t-13 -88l-98 2l4 174q0 47 -36.5 82t-91 57.5t-117 34t-111.5 11.5q-78 0 -135.5 -23.5t-95 -59.5t-56 -78t-18.5 -79q0 -47 21.5 -85t58.5 -69.5t87 -59.5t107 -52l297 -127q74 -31 125 -78 t83 -101.5t46 -112.5t14 -114q0 -94 -37.5 -170.5t-106.5 -132t-164 -86t-208 -30.5q-59 0 -128.5 8t-142.5 22.5t-145.5 32.5t-136.5 39z" />
<glyph unicode="T" horiz-adv-x="1355" d="M41 1198v338h1274v-338h-92q-4 68 -8.5 104.5t-19.5 54t-44 21.5t-82 4h-272v-962q0 -94 3 -156.5t19.5 -100.5t49 -54.5t94.5 -16.5h20v-92h-606v92q68 0 105.5 16.5t55 54.5t20.5 100.5t3 156.5v962h-274q-49 0 -79 -5t-47.5 -18t-22.5 -38t-5 -61v-62h-92z" />
<glyph unicode="U" horiz-adv-x="1517" d="M-20 1444v92h606v-92q-68 0 -106 -16.5t-55 -54.5t-20.5 -100.5t-3.5 -156.5v-661q0 -102 32 -170t83 -109t114.5 -58.5t127.5 -17.5q63 0 127.5 16.5t116 57.5t83 109.5t31.5 171.5v661q0 94 -3 156.5t-20.5 100.5t-55.5 54.5t-105 16.5v92h606v-92h-20q-61 0 -94 -16.5 t-49.5 -54.5t-19.5 -100.5t-3 -156.5v-598q0 -125 -39 -224t-115 -169t-184.5 -107.5t-245.5 -37.5q-295 0 -448.5 143t-153.5 395v598q0 94 -3 156.5t-19.5 100.5t-49.5 54.5t-94 16.5h-20z" />
<glyph unicode="V" horiz-adv-x="1656" d="M-41 1452v84h764v-94h-70q-80 0 -131 -16.5t-51 -73.5q0 -53 44 -149.5t101 -237.5l265 -650l270 650q59 143 89 234t30 144q0 55 -35 77t-113 22h-69v94h645v-84q-66 -6 -116 -30.5t-97 -83t-97.5 -157t-113.5 -251.5l-397 -950h-99l-399 950q-53 129 -99.5 225 t-93.5 160.5t-101 98.5t-126 38z" />
<glyph unicode="W" horiz-adv-x="1835" d="M-20 1444v92h606v-92q-68 0 -106 -16.5t-55 -54.5t-20.5 -100.5t-3.5 -156.5v-670q0 -80 38 -138t96.5 -99t129 -66.5t138.5 -38.5v830q0 94 -3 152.5t-20.5 91t-55.5 44t-106 11.5v92h607v-92h-21q-61 0 -94 -11.5t-49.5 -44t-19.5 -91t-3 -152.5v-836q66 8 135.5 32 t128 66t95.5 103t37 147v670q0 94 -3.5 156.5t-20.5 100.5t-55 54.5t-106 16.5v92h606v-92h-20q-61 0 -94 -16.5t-49.5 -54.5t-19.5 -100.5t-3 -156.5v-606q0 -115 -53 -211t-146.5 -168t-219.5 -111.5t-273 -39.5h-113q-123 0 -247.5 43t-225 114.5t-163 167.5t-62.5 205 v606q0 94 -3 156.5t-19.5 100.5t-49.5 54.5t-94 16.5h-20z" />
<glyph unicode="X" horiz-adv-x="1552" d="M41 0v92h20q55 0 88 9.5t50.5 36t22.5 71.5t5 119q0 160 74 273.5t197 168.5q-117 53 -182.5 158.5t-65.5 255.5q0 82 -4 132t-20.5 78.5t-50.5 39t-91 10.5h-21v92h607v-92q-68 0 -106 -8.5t-55 -37t-20.5 -83.5t-3.5 -150v-30q0 -86 22.5 -144.5t60.5 -93.5t88.5 -50.5 t103.5 -15.5h33q53 0 103 15.5t88 50.5t60.5 93.5t22.5 144.5v30q0 94 -3 149.5t-20.5 84t-55.5 37t-105 8.5v92h606v-92h-21q-59 0 -92 -9.5t-49 -38t-20 -79.5t-4 -133q0 -150 -66 -255.5t-182 -158.5q123 -55 196.5 -169t73.5 -273q0 -74 5 -119t22.5 -71.5t50.5 -36 t88 -9.5h20v-92h-606v92q68 0 106 8.5t55 37t20.5 83.5t3.5 150v37q0 82 -26 140t-67 93t-92 51.5t-102 16.5h-55q-53 0 -103.5 -16.5t-91.5 -51.5t-65.5 -93.5t-24.5 -139.5v-37q0 -94 3 -149.5t21.5 -84t56.5 -37t105 -8.5v-92h-608z" />
<glyph unicode="Y" horiz-adv-x="1517" d="M-20 1444v92h606v-92q-68 0 -106 -16.5t-55 -54.5t-20.5 -100.5t-3.5 -156.5v-115q0 -102 32 -169.5t83 -108.5t115.5 -58.5t130.5 -17.5q63 0 125.5 16.5t114 57.5t83 109.5t31.5 170.5v115q0 94 -3 156.5t-20.5 100.5t-55.5 54.5t-105 16.5v92h606v-94h-20 q-61 0 -94 -15.5t-49.5 -52.5t-19.5 -99.5t-3 -156.5v-53q0 -223 -122 -363.5t-349 -169.5v-112q0 -94 3 -156.5t19.5 -100.5t49 -54.5t94.5 -16.5h20v-92h-606v92q68 0 105.5 16.5t55 54.5t20.5 100.5t3 156.5v112q-236 31 -357.5 170.5t-121.5 362.5v51q0 94 -3 156.5 t-19.5 100.5t-49.5 54.5t-94 16.5h-20z" />
<glyph unicode="Z" horiz-adv-x="1470" d="M41 66l1063 1353h-791q-49 0 -75.5 -10t-39 -33.5t-15.5 -59.5t-3 -85h-92v305h1342v-94l-1031 -1323h793q49 0 75.5 11t39 34.5t14.5 59.5t2 85h92v-309h-1352z" />
<glyph unicode="[" horiz-adv-x="714" d="M143 0v1536h531v-92h-158q-59 0 -92 -9.5t-48.5 -38t-19.5 -79.5t-4 -133v-856q0 -74 5 -119t22.5 -71.5t50.5 -36t88 -9.5h148v-92h-523z" />
<glyph unicode="\" horiz-adv-x="1150" d="M0 1665h178l488 -885q92 -166 179 -324.5t154.5 -283.5t108.5 -200l41 -76h-105q-2 0 -47 75.5t-118.5 200.5t-167 283.5t-190.5 324.5t-191 325t-167 283.5t-118 200.5z" />
<glyph unicode="]" horiz-adv-x="714" d="M41 1444v92h530v-1536h-522v92h148q55 0 87.5 9.5t50 36t22.5 71.5t5 119l3 856q0 82 -4.5 133t-20.5 79.5t-50 38t-91 9.5h-158z" />
<glyph unicode="^" horiz-adv-x="897" d="M61 969l383 481l392 -487l-19 -45l-362 276l-375 -270z" />
<glyph unicode="_" horiz-adv-x="821" d="M0 72h821v-154h-821v154z" />
<glyph unicode="`" horiz-adv-x="669" d="M41 1409l152 147l313 -385l-45 -53z" />
<glyph unicode="a" horiz-adv-x="1290" d="M102 506q0 121 30 217t92.5 162.5t160.5 102.5t236 36q137 0 236 -36t163.5 -102.5t95.5 -160.5t31 -213v-512h-238l2 190q-37 -68 -74.5 -108.5t-77.5 -64t-84 -30.5t-93 -7q-127 0 -217.5 38.5t-148.5 107.5t-86 166t-28 214zM338 455q0 -100 17.5 -168t50 -110 t79.5 -59.5t109 -17.5q72 0 130 23.5t100 76t64.5 136.5t22.5 207v4q0 102 -20.5 170.5t-58 109.5t-91 58.5t-118.5 17.5q-63 0 -115.5 -17.5t-90.5 -58.5t-58.5 -108.5t-20.5 -169.5v-94z" />
<glyph unicode="b" horiz-adv-x="1267" d="M-61 1444v92h600v-92h-21q-61 0 -94 -16.5t-48.5 -54.5t-17.5 -100.5t-2 -156.5v-164q59 29 131 50.5t175 21.5q129 0 224 -39t157.5 -109.5t92 -169t29.5 -217.5q0 -236 -122.5 -372.5t-391.5 -136.5q-141 0 -241.5 38.5t-165 109.5t-94 168t-29.5 216v604 q0 94 -3 156.5t-19.5 100.5t-54.5 54.5t-105 16.5zM356 455q0 -102 20.5 -170t58.5 -109t91.5 -58.5t118.5 -17.5q63 0 115.5 16.5t90.5 57.5t58.5 109.5t20.5 171.5v80q0 102 -20.5 172.5t-58.5 113.5t-90 62.5t-116 19.5q-66 0 -119 -19.5t-91 -63.5t-58.5 -114.5 t-20.5 -170.5v-80z" />
<glyph unicode="c" horiz-adv-x="1116" d="M102 481q0 115 39 213.5t108.5 169t167 110.5t214.5 40q84 0 153.5 -19.5t123 -51.5t89 -72t52.5 -78l-142 -97q-29 84 -96.5 133.5t-169.5 49.5q-68 0 -126 -22.5t-103 -68t-71 -110t-26 -146.5q0 -102 39 -182t106.5 -134t156 -83t186.5 -29q55 0 117.5 10.5 t130.5 32.5l4 -65q-29 -12 -69 -30.5t-92 -34t-116.5 -26.5t-138.5 -11q-139 0 -239.5 40.5t-167 109.5t-98.5 160t-32 191z" />
<glyph unicode="d" horiz-adv-x="1267" d="M102 500q0 119 30 216t92.5 165.5t156.5 106.5t223 38q104 0 175 -21.5t130 -50.5v162q0 94 -2 156.5t-17.5 100.5t-47 54.5t-92.5 16.5h-21v92h600v-92q-68 0 -105.5 -16.5t-55 -54.5t-20.5 -100.5t-3 -156.5v-624q0 -111 -30 -205t-93.5 -163t-162.5 -106.5t-238 -37.5 q-137 0 -235.5 36.5t-161 105t-92.5 165t-30 213.5zM338 455q0 -102 20.5 -171t58.5 -110t90 -57.5t116 -16.5q66 0 119 17.5t89.5 58.5t57 108.5t20.5 170.5v82q0 203 -77.5 285.5t-208.5 82.5q-63 0 -115.5 -19.5t-90.5 -62.5t-58.5 -113.5t-20.5 -172.5v-82z" />
<glyph unicode="e" horiz-adv-x="1247" d="M102 506q0 242 134.5 380t381.5 138q137 0 236.5 -43t164 -113.5t95.5 -165t31 -194.5v-62h-807q0 -55 20.5 -117.5t63.5 -115.5t111.5 -89t166.5 -36q100 0 234 35l16 -68q-45 -20 -83 -34.5t-73.5 -23.5t-71.5 -13t-79 -4q-119 0 -218 32.5t-171 98t-112 164t-40 231.5 zM338 573h571q0 168 -78.5 244t-199.5 76q-78 0 -133.5 -27.5t-90 -71.5t-52 -101.5t-17.5 -119.5z" />
<glyph unicode="f" horiz-adv-x="866" d="M-61 -317h20q61 0 94 16t49.5 54t19.5 100.5t3 156.5v989q0 248 150.5 391.5t439.5 145.5h131v-119h-131q-63 0 -127 -17.5t-114 -58.5t-82 -109.5t-32 -168.5v-285h486v-94h-486v-674q0 -84 2.5 -146.5t14.5 -102.5t39.5 -59t79.5 -19h57v-93h-614v93z" />
<glyph unicode="g" horiz-adv-x="1390" d="M102 508q0 119 40 214t116 162.5t186.5 103.5t249.5 36t249 -36t186.5 -104.5t117.5 -168t41 -223.5q0 -80 -19.5 -162t-69.5 -149.5t-137 -117t-220 -63.5q-43 -4 -94.5 -10t-96.5 -26.5t-74.5 -58.5t-29.5 -108q0 -80 45 -97t137 -17v-93h-590v93h4q59 0 92 2t48.5 10 t18.5 26.5t7 49.5q6 49 14.5 80.5t29 56t57 48.5t98.5 58q-184 41 -295 165t-111 329zM338 471q0 -102 31.5 -171t83 -109.5t115 -57t126.5 -16.5q61 0 125 15t116 52t85 99.5t33 156.5v109q0 100 -32 168.5t-83 109.5t-115.5 58.5t-130.5 17.5q-63 0 -126.5 -16.5 t-114 -57.5t-82 -109.5t-31.5 -170.5v-78z" />
<glyph unicode="h" d="M20 0v92h21q61 0 94 16.5t49.5 54.5t19.5 100.5t3 156.5v696q0 94 -3 156.5t-20.5 100.5t-55.5 54.5t-105 16.5v92h606v-92h-21q-61 0 -94 -16.5t-49 -54.5t-19.5 -100.5t-3.5 -156.5v-158q57 33 126 49.5t157 16.5q135 0 230.5 -38t154.5 -108.5t87 -170t28 -222.5v-65 q0 -94 3 -156.5t19.5 -100.5t49 -54.5t94.5 -16.5h20v-92h-606v92q68 0 105.5 16.5t55 54.5t20.5 100.5t3 156.5v129q0 100 -16.5 168.5t-49 109.5t-81.5 58.5t-113 17.5q-61 0 -114.5 -16.5t-91.5 -54t-59.5 -102t-21.5 -161.5v-149q0 -94 3.5 -156.5t20.5 -100.5t55 -54.5 t106 -16.5v-92h-607z" />
<glyph unicode="i" horiz-adv-x="729" d="M61 911v93h607v-93q-68 0 -106 -16t-55.5 -54t-20.5 -100.5t-3 -156.5v-164q0 -94 3 -156.5t19.5 -100.5t49.5 -54.5t94 -16.5h19v-92h-605v92q68 0 106 16.5t55.5 54.5t20.5 100.5t3 156.5v164q0 94 -3 156.5t-19.5 100.5t-49.5 54t-94 16h-21zM209 1393q0 63 44 108 t107 45t108.5 -45t45.5 -108t-45 -108.5t-109 -45.5q-63 0 -107 45.5t-44 108.5z" />
<glyph unicode="j" horiz-adv-x="647" d="M-213 -279q20 -4 40.5 -7t43.5 -3q55 0 114.5 17.5t108.5 59.5t80 109.5t31 168.5v518q0 94 -3 156.5t-20.5 100.5t-55.5 54t-106 16v93h607v-93h-21q-61 0 -94 -16t-49.5 -54t-19.5 -100.5t-3 -156.5v-455q0 -125 -39 -224.5t-112.5 -169t-180 -107.5t-241.5 -38 q-27 0 -45.5 1t-34.5 3v127zM162 1393q0 63 44 108t107 45t108.5 -45t45.5 -108t-45 -108.5t-109 -45.5q-63 0 -107 45.5t-44 108.5z" />
<glyph unicode="k" horiz-adv-x="1433" d="M20 1444v92h609v-92q-68 0 -106 -16.5t-56 -54.5t-22.5 -100.5t-4.5 -156.5v-508q66 61 145 102.5t148 51.5v242h383v-93q-63 0 -101 -2t-57.5 -16t-25.5 -45t-6 -86q215 -41 330.5 -188.5t115.5 -370.5q0 -248 -112.5 -394.5t-313.5 -226.5l-31 37q117 86 169.5 217 t52.5 334q0 164 -30 263t-77 151.5t-104.5 69t-112.5 16.5q-41 0 -103.5 -22.5t-122 -63.5t-102.5 -101.5t-43 -134.5q0 -80 5.5 -129t21.5 -77.5t50 -39t89 -10.5h21v-92h-606v92q68 0 105.5 16.5t54 54.5t19.5 100.5t3 156.5v696q0 94 -6 156.5t-25.5 100.5t-55.5 54.5 t-98 16.5z" />
<glyph unicode="l" horiz-adv-x="647" d="M20 0v92q68 0 106 16.5t55.5 54.5t20.5 100.5t3 156.5v1116h235v-1116q0 -94 3 -156.5t19.5 -100.5t49.5 -54.5t94 -16.5h21v-92h-607z" />
<glyph unicode="m" horiz-adv-x="2211" d="M20 0v92h21q61 0 94 14.5t49.5 51.5t19.5 98t3 156v73q0 252 131 395.5t389 143.5q127 0 225.5 -37t157.5 -110q129 147 391 147q137 0 232.5 -38t156 -107.5t88 -169t27.5 -224.5v-65q0 -94 3 -156.5t19.5 -100.5t49 -54.5t94.5 -16.5h20v-92h-606v92q68 0 106 16.5 t55 54.5t20 100.5t3 156.5v129q0 100 -16 168.5t-49 109.5t-82 58.5t-115 17.5q-63 0 -115.5 -16.5t-89 -57.5t-57 -109.5t-20.5 -170.5v-137q0 -94 3 -155.5t19.5 -98.5t49 -51.5t94.5 -14.5h20v-92h-606v92q63 0 100 13.5t55.5 45t23.5 85t5 133.5v184q0 100 -17.5 167.5 t-50 107.5t-81.5 57.5t-113 17.5q-63 0 -115.5 -17.5t-90.5 -58.5t-58.5 -108.5t-20.5 -169.5v-137q0 -94 3.5 -155.5t20.5 -98.5t55 -51.5t106 -14.5v-92h-607z" />
<glyph unicode="n" d="M20 0v92h21q61 0 94 16.5t49.5 54.5t19.5 100.5t3 156.5v65q0 252 131 395.5t393 143.5q131 0 224.5 -38t152.5 -107.5t88 -169t29 -224.5v-65q0 -94 3 -156.5t19.5 -100.5t49 -54.5t94.5 -16.5h20v-92h-606v92q68 0 105.5 16.5t55 54.5t20.5 100.5t3 156.5v129 q0 100 -16.5 168.5t-49 109.5t-81.5 58.5t-115 17.5q-63 0 -115.5 -16.5t-90.5 -57.5t-58.5 -109.5t-20.5 -170.5v-129q0 -94 3.5 -156.5t20.5 -100.5t55 -54.5t106 -16.5v-92h-607z" />
<glyph unicode="o" horiz-adv-x="1249" d="M102 498q0 100 31 195t94.5 169t163 118t238.5 44q137 0 235.5 -45t162 -119t92 -169t28.5 -197t-30 -195.5t-92 -164.5t-159.5 -112.5t-234.5 -41.5q-139 0 -238.5 43t-164 114.5t-95.5 164.5t-31 196zM338 455q0 -102 20.5 -170t58.5 -109t91 -58.5t119 -17.5 q63 0 115.5 16.5t90 57.5t58 109.5t20.5 171.5v92q0 102 -20.5 170.5t-58 109.5t-90 58.5t-115.5 17.5q-66 0 -119 -17.5t-91 -59.5t-58.5 -110.5t-20.5 -168.5v-92z" />
<glyph unicode="p" horiz-adv-x="1267" d="M-61 -317q68 0 105.5 15t55 52t20.5 99.5t3 156.5v504q0 113 29.5 207t94 162.5t164 106.5t240.5 38q135 0 232.5 -36t160 -102.5t92 -161.5t29.5 -214t-29.5 -213t-93 -160.5t-162 -101.5t-235.5 -35q-170 0 -287 57v-51q0 -94 2 -156.5t17.5 -99.5t47.5 -52t93 -15h21 v-93h-600v93zM358 475q0 -102 20.5 -169.5t57.5 -108.5t90.5 -58.5t118.5 -17.5q63 0 115.5 16.5t90.5 57.5t58.5 109.5t20.5 170.5v72q0 102 -20.5 170.5t-58.5 109.5t-90 58.5t-116 17.5q-66 0 -119 -17.5t-90 -59.5t-57.5 -110.5t-20.5 -168.5v-72z" />
<glyph unicode="q" horiz-adv-x="1390" d="M102 496q0 123 40 221t117 165.5t187.5 104.5t249.5 37t250 -36t186.5 -103.5t115.5 -162.5t40 -214q0 -205 -110.5 -329t-294.5 -165q49 -23 86 -46t61.5 -51t37.5 -63.5t13 -82.5q0 -31 5.5 -48.5t22.5 -26.5t50 -11t88 -2h4v-93h-589v93q92 0 137 17t45 97 q0 70 -30 110t-74 59.5t-93 24.5t-88 9q-129 12 -216 57t-140 113t-77 152t-24 174zM338 440q0 -94 32.5 -156.5t85 -99.5t116 -52t124.5 -15q63 0 127 16.5t115 57t83 109.5t32 171v72q0 102 -32 171.5t-83 111.5t-114.5 59.5t-127.5 17.5q-66 0 -129 -18.5t-114.5 -60.5 t-83 -111.5t-31.5 -169.5v-103z" />
<glyph unicode="r" horiz-adv-x="921" d="M20 0v92h21q61 0 94 16.5t49.5 54.5t19.5 100.5t3 156.5v65q0 252 153.5 395.5t448.5 143.5h64.5t27.5 -2v-107q-25 4 -51.5 5.5t-50.5 1.5h-13q-57 0 -114 -16q-64 -18 -115 -58.5t-83 -110t-32 -170.5v-147q0 -94 3.5 -156.5t20.5 -100.5t55 -54.5t106 -16.5v-92h-607z " />
<glyph unicode="s" horiz-adv-x="962" d="M102 276h88q16 -37 35 -71.5t48.5 -61t72.5 -43t109 -16.5q37 0 75.5 6t70.5 21.5t51.5 42t19.5 65.5t-20.5 66.5t-53.5 46t-74 33t-82 30.5q-53 20 -110.5 48t-104.5 70t-77.5 97.5t-30.5 130.5q0 135 104.5 209t284.5 74q92 0 164.5 -20.5t146.5 -67.5v-209h-100 q-10 43 -21.5 79t-34 61.5t-62.5 40t-107 14.5q-35 0 -69 -4.5t-60.5 -16.5t-43 -33.5t-16.5 -54.5q0 -39 20.5 -63.5t54.5 -42t76 -31.5t83 -33q55 -23 112.5 -53.5t103.5 -73.5t75.5 -100.5t29.5 -130.5q0 -80 -36 -138.5t-93 -95.5t-129 -54t-145 -17q-72 0 -151 10 t-169 10z" />
<glyph unicode="t" horiz-adv-x="798" d="M41 885v119h244v532h235v-532h238v-119h-238v-465q0 -94 3 -156.5t21.5 -100.5t56.5 -54.5t106 -16.5v-92h-607v92q68 0 106 16.5t55.5 54.5t20.5 100.5t3 156.5v465h-244z" />
<glyph unicode="u" d="M20 911v93h607v-93q-68 0 -106 -16t-55 -54t-20.5 -100.5t-3.5 -156.5v-129q0 -102 19.5 -170t55.5 -109t87 -58.5t117 -17.5q63 0 112.5 16.5t84 57.5t53 109.5t18.5 171.5v129q0 94 -3 156.5t-20.5 100.5t-55.5 54t-105 16v93h606v-93h-20q-61 0 -94 -16t-49.5 -54 t-19.5 -100.5t-3 -156.5v-66q0 -250 -124 -394t-384 -144q-129 0 -225.5 37.5t-160 107.5t-94 169t-30.5 224v66q0 94 -3 156.5t-19.5 100.5t-49.5 54t-94 16h-21z" />
<glyph unicode="v" horiz-adv-x="1200" d="M20 920v84h527v-93h-62q-82 0 -82 -47q0 -16 6.5 -33.5t29 -70.5t66.5 -157.5t122 -291.5q29 70 69.5 164t77.5 180t63.5 147.5t26.5 67.5q0 20 -7 30.5t-50 10.5h-80v93h453v-84q-43 -4 -77 -19.5t-64.5 -51.5t-63.5 -97.5t-72 -155.5l-260 -616h-88l-262 616 q-37 86 -66.5 145.5t-60.5 97.5t-65.5 57t-80.5 24z" />
<glyph unicode="w" horiz-adv-x="2211" d="M20 911v93h607v-93q-68 0 -106 -16t-55 -54t-20.5 -100.5t-3.5 -156.5v-129q0 -102 16.5 -170t49.5 -109t81 -58.5t113 -17.5q63 0 116.5 15.5t90.5 55.5t57.5 107.5t20.5 170.5v137q0 94 -3 156.5t-19.5 100.5t-49 54t-94.5 16h-20v93h606v-93q-63 0 -100 -14t-55.5 -47 t-23.5 -88t-5 -135v-178q0 -100 16 -168t49 -108t82 -57.5t113 -17.5q63 0 116.5 16.5t91.5 57.5t58 109.5t20 171.5v131q0 94 -3 156.5t-20 100.5t-55 54t-106 16v93h606v-93h-20q-61 0 -94 -16t-49.5 -54t-19.5 -100.5t-3 -156.5v-68q0 -252 -132 -395t-380 -143 q-141 0 -236.5 38.5t-154.5 110.5q-130 -149 -386 -149h-3q-137 0 -233.5 37.5t-157 107.5t-88 169t-27.5 224v66q0 94 -3 156.5t-19.5 100.5t-49.5 54t-94 16h-21z" />
<glyph unicode="x" horiz-adv-x="1323" d="M61 0v92h37q33 0 52.5 5t29.5 19.5t13.5 41t3.5 67.5q4 104 51 167t133 112q-76 41 -119 104.5t-43 155.5q0 47 -2 75.5t-11 45t-29.5 21.5t-57.5 5h-37v93h502v-93q-53 0 -81 -5t-41 -21.5t-15.5 -48t-2.5 -84.5q0 -49 21.5 -83t55.5 -55.5t72 -31t73 -9.5 q33 0 71.5 9.5t71.5 31t54.5 55t21.5 83.5q0 53 -3 84.5t-16.5 48t-41 21.5t-76.5 5v93h493v-93h-39q-31 0 -49 -4t-27.5 -15t-12.5 -31.5t-3 -53.5q0 -51 -5 -93t-23.5 -78t-51.5 -67.5t-88 -64.5q80 -45 133 -109.5t55 -169.5q0 -41 2.5 -67.5t11.5 -41t27.5 -19.5 t53.5 -5h37v-92h-494v92q51 0 78.5 5t41 21.5t15.5 48.5t2 85q0 57 -23.5 94t-58.5 58.5t-74.5 28.5t-72.5 7q-39 0 -83 -10t-82 -32.5t-62.5 -58.5t-24.5 -87q0 -53 2 -85t15.5 -48.5t41 -21.5t80.5 -5v-92h-502z" />
<glyph unicode="y" d="M20 911v93h607v-93q-68 0 -106 -16t-55 -54t-20.5 -100.5t-3.5 -156.5v-117q0 -102 19.5 -170t55.5 -109t87 -58t117 -17q63 0 112.5 16t84 57t53 110t18.5 171v117q0 94 -3 156.5t-20.5 100.5t-55.5 54t-105 16v93h606v-93h-20q-61 0 -94 -16t-49.5 -54t-19.5 -100.5 t-3 -156.5v-54q0 -207 -83 -342t-255 -178q57 -31 94 -55.5t58.5 -50t30.5 -58t13 -77.5q2 -31 6.5 -48.5t20.5 -25.5t48 -10t91 -2h4v-93h-589v93q49 0 83.5 3t57 14t33 33.5t10.5 63.5q0 68 -24.5 104t-65.5 55t-92.5 28.5t-102.5 23.5q-80 20 -145.5 58t-112.5 99.5 t-72.5 151t-25.5 213.5v54q0 94 -3 156.5t-19.5 100.5t-49.5 54t-94 16h-21z" />
<glyph unicode="z" horiz-adv-x="1171" d="M61 63l705 822h-422q-49 0 -74.5 -11.5t-38 -34t-14.5 -58.5t-2 -85h-92v308h938v-97q-90 -96 -197 -217q-92 -104 -213 -247.5t-260 -323.5h465q49 0 73.5 11t35 34.5t11.5 59.5t1 85h92v-309h-985z" />
<glyph unicode="{" horiz-adv-x="911" d="M61 711v120h52q53 0 103 15.5t88 50.5t60.5 93.5t22.5 144.5v30q0 94 -3 149.5t-20.5 84t-55.5 37t-105 8.5v92h667v-92h-82q-59 0 -91.5 -9.5t-49 -37t-19.5 -78.5t-5 -135q-4 -158 -66.5 -257.5t-181.5 -156.5q70 -35 117 -78t74.5 -97t39.5 -120.5t17 -146.5 q2 -59 3 -103.5t15 -74t48 -44t102 -14.5h77v-92h-663v92q68 0 105.5 8.5t55 37t20.5 83.5t3 150v37q0 86 -23.5 144t-61.5 93t-88 50.5t-103 15.5h-52z" />
<glyph unicode="|" horiz-adv-x="468" d="M143 -233v2048h183v-2048h-183z" />
<glyph unicode="}" horiz-adv-x="911" d="M41 0v92h80q68 0 101.5 14.5t48 44t14.5 73.5t4 104q4 80 16 146.5t40 120.5t74 97t118 78q-119 57 -181.5 156.5t-66.5 257.5q-2 84 -5 135t-19.5 78.5t-49.5 37t-92 9.5h-82v92h668v-92q-68 0 -106 -8.5t-55.5 -37t-20.5 -83.5t-3 -150v-30q0 -86 22.5 -144.5 t60.5 -93.5t88 -50.5t104 -15.5h51v-120h-51q-53 0 -102.5 -15.5t-88.5 -50.5t-61.5 -93t-22.5 -144v-37q0 -94 3 -149.5t20.5 -84t55.5 -37t106 -8.5v-92h-668z" />
<glyph unicode="~" horiz-adv-x="956" d="M61 440q88 209 291 209q72 0 170 -49q98 -45 158 -45q47 0 95 24.5t83 53.5l37 -31q-94 -199 -244 -199q-74 0 -184 52q-59 23 -104.5 36t-79.5 13q-41 0 -88.5 -19.5t-83.5 -68.5z" />
<glyph unicode="&#xa1;" horiz-adv-x="538" d="M143 -410l78 1229h105l69 -1229h-252zM150 1010q0 47 28.5 81.5t89.5 34.5q66 0 94.5 -34.5t28.5 -81.5t-28.5 -83t-94.5 -36q-61 0 -89.5 36t-28.5 83z" />
<glyph unicode="&#xa2;" horiz-adv-x="1116" d="M102 735q0 100 30 187.5t84 155t130 113.5t170 64v281h180v-272q141 -16 232.5 -81t120.5 -136l-142 -97q-29 84 -96.5 133.5t-169.5 49.5q-68 0 -126 -23t-103 -68t-71 -109.5t-26 -146.5q0 -102 39 -182t106.5 -134t156 -83t186.5 -29q55 0 117.5 10.5t130.5 32.5 l4 -65q-51 -25 -141.5 -58.5t-217.5 -41.5v-236h-180v242q-106 18 -184 63t-129 111.5t-76 147.5t-25 171z" />
<glyph unicode="&#xa3;" horiz-adv-x="1138" d="M102 0v92h21q61 0 94 16.5t49.5 54.5t19.5 100.5t3 156.5v104h-187v86h187v168h-183v86h183v135q0 248 150.5 391.5t439.5 145.5h208v-119h-208q-63 0 -127 -17.5t-114 -58.5t-82 -109.5t-32 -168.5v-199h355v-86h-355v-168h357v-86h-357v-104q0 -84 2 -145.5 t15.5 -101.5t41 -59.5t76.5 -19.5h439v-94h-996z" />
<glyph unicode="&#xa5;" horiz-adv-x="1517" d="M-20 1444v92h606v-92q-68 0 -106 -15.5t-55 -53.5t-20.5 -100.5t-3.5 -156.5v-117q0 -102 32 -169.5t83 -108.5t114.5 -58.5t127.5 -17.5q63 0 127.5 16.5t116 57.5t83 109.5t31.5 170.5v117q0 94 -3 156.5t-20.5 100.5t-55.5 53.5t-105 15.5v92h606v-92h-20 q-61 0 -94 -15.5t-49.5 -52.5t-19.5 -99.5t-3 -156.5v-55q0 -174 -75 -300t-226 -190h192v-88l-362 2v-161h364v-86h-360q8 -84 42 -117t120 -33h20v-92h-606v92q96 0 133 34t45 116h-369v86h375v161h-371v86h197q-156 63 -230.5 189.5t-74.5 300.5v53q0 94 -3 156.5 t-19.5 100.5t-49.5 53.5t-94 15.5h-20z" />
<glyph unicode="&#xa6;" horiz-adv-x="387" d="M102 -233v895h183v-895h-183zM102 969v846h183v-846h-183z" />
<glyph unicode="&#xa7;" horiz-adv-x="1044" d="M143 276h88q16 -37 35 -71.5t48.5 -61t72.5 -43t109 -16.5q37 0 75.5 6t70.5 21.5t51.5 42t19.5 65.5t-20.5 66.5t-53.5 46t-74 33t-82 30.5q-53 20 -110.5 48t-104.5 70t-77.5 97t-30.5 131q0 92 48 154.5t136 95.5q-74 43 -129 110.5t-55 172.5q0 135 104.5 208.5 t284.5 73.5q92 0 164.5 -20t146.5 -68v-208h-100q-10 43 -21.5 78.5t-34 61t-62.5 40t-107 14.5q-35 0 -69 -4t-60.5 -16.5t-43 -34t-16.5 -53.5q0 -39 20.5 -64t54.5 -42t76 -31.5t83 -32.5q55 -23 112.5 -53.5t103.5 -73.5t75.5 -100.5t29.5 -131.5q0 -94 -47 -157.5 t-119 -98.5q70 -47 118 -112.5t48 -163.5q0 -80 -36 -138.5t-93 -95.5t-129 -54t-145 -17q-72 0 -151 10t-169 10zM346 813q0 -39 20.5 -63.5t54.5 -42t76 -31.5t83 -33l26 -12q45 14 76 42.5t31 78.5q0 37 -18.5 63.5t-48.5 45t-67.5 31.5t-76.5 28q-61 -4 -108.5 -26 t-47.5 -81z" />
<glyph unicode="&#xa8;" horiz-adv-x="845" d="M102 1360q0 51 37 88t90 37t91 -37t38 -88q0 -55 -37.5 -91t-91.5 -36q-53 0 -90 36t-37 91zM487 1360q0 51 38 88t87 37q53 0 92 -37t39 -88q0 -55 -37.5 -91t-93.5 -36q-51 0 -88 36t-37 91z" />
<glyph unicode="&#xa9;" horiz-adv-x="1697" d="M41 786q0 162 65.5 304.5t176 247t257 165t310.5 60.5q162 0 308.5 -60.5t257 -165t176 -247t65.5 -304.5q0 -164 -65.5 -306t-176 -246.5t-257 -165t-308.5 -60.5q-164 0 -310.5 60.5t-257 165t-176 247t-65.5 305.5zM162 786q0 -137 55 -256.5t149.5 -209t219.5 -140.5 t264 -51t264 51t218 140.5t148.5 209t55.5 256.5t-55.5 257t-148.5 209t-218 139.5t-264 50.5t-264 -50.5t-219.5 -139.5t-149.5 -209t-55 -257zM326 776q0 113 38.5 209t108.5 167t166 111t213 40q96 0 168 -23t122 -56.5t80.5 -70.5t45.5 -63l-138 -105q-29 47 -54 82 t-55 57.5t-71 32.5t-100 10t-115.5 -21.5t-99.5 -64.5t-69.5 -109.5t-26.5 -156.5q0 -92 38.5 -170t106.5 -134t156 -87t186 -31q55 0 117.5 10.5t130.5 32.5l4 -65q-43 -23 -82 -42.5t-88 -32.5t-115.5 -20.5t-163.5 -7.5q-111 0 -202.5 37t-159.5 104.5t-104.5 161 t-36.5 205.5z" />
<glyph unicode="&#xaa;" horiz-adv-x="864" d="M82 1212q0 160 83 252t263 92q182 0 268 -92t86 -252v-342h-192v80q-35 -47 -72 -63.5t-102 -16.5q-170 0 -252 91.5t-82 250.5zM127 555v154h655v-154h-655zM272 1210q0 -129 40 -176t106 -47q88 0 131 64.5t43 181.5v4q0 113 -44 158t-118 45q-72 0 -115 -47t-43 -183z " />
<glyph unicode="&#xab;" horiz-adv-x="976" d="M102 508q0 14 8.5 30.5t43.5 57.5q39 45 90 105.5t97 115.5t80 93t38 38q10 0 24.5 -5t10.5 -15q-23 -43 -52.5 -115t-56.5 -140.5t-44 -117.5l-17 -49q0 -41 21.5 -98.5t49 -116t56 -111.5t43.5 -84q6 -14 -9.5 -20t-25.5 -6t-85 90t-204 237q-45 49 -56.5 73t-11.5 38z M481 508q0 14 8.5 30.5t42.5 57.5q39 45 90.5 105.5t97.5 115.5t80 93t38 38q10 0 24.5 -5t9.5 -15q-23 -43 -52 -115t-56 -140.5t-44 -117.5l-18 -49q0 -41 21.5 -98.5t49.5 -116t56.5 -111.5t42.5 -84q6 -14 -9 -20t-25 -6t-85 90t-204 237q-45 49 -56.5 73t-11.5 38z" />
<glyph unicode="&#xac;" horiz-adv-x="944" d="M61 563v154h822v-369h-154v215h-668z" />
<glyph unicode="&#xad;" horiz-adv-x="634" d="M61 563v154h512v-154h-512z" />
<glyph unicode="&#xae;" horiz-adv-x="1697" d="M41 786q0 162 65.5 304.5t176 247t257 165t310.5 60.5q162 0 308.5 -60.5t257 -165t176 -247t65.5 -304.5q0 -164 -65.5 -306t-176 -246.5t-257 -165t-308.5 -60.5q-164 0 -310.5 60.5t-257 165t-176 247t-65.5 305.5zM162 786q0 -137 55 -256.5t149.5 -209t219.5 -140.5 t264 -51t264 51t218 140.5t148.5 209t55.5 258.5q0 127 -46 236t-126 195q-31 6 -90 6q-72 0 -138.5 -17.5t-116.5 -58.5t-80 -109.5t-30 -169.5v-147q0 -94 3 -156.5t20.5 -100.5t55.5 -54.5t106 -16.5v-92h-607v92h21q61 0 94 16.5t49.5 54.5t19.5 100.5t3 156.5v65 q0 242 143.5 384.5t419.5 152.5q-86 55 -183.5 86t-203.5 31q-139 0 -264 -50.5t-219.5 -139.5t-149.5 -209t-55 -257z" />
<glyph unicode="&#xaf;" horiz-adv-x="722" d="M102 1280v154h519v-154h-519z" />
<glyph unicode="&#xb0;" horiz-adv-x="610" d="M61 1303q0 51 18.5 96t51.5 77.5t78 51t96 18.5t96 -19.5t78 -53t51.5 -77.5t18.5 -93q0 -51 -19.5 -96.5t-53.5 -78t-78 -51t-93 -18.5q-51 0 -96 19.5t-78 53t-51.5 77.5t-18.5 94zM188 1303q0 -47 34 -82t83 -35q47 0 82 33.5t35 83.5q0 47 -35 81.5t-82 34.5 q-49 0 -83 -34.5t-34 -81.5z" />
<glyph unicode="&#xb1;" horiz-adv-x="1056" d="M61 121v133h934v-133h-934zM61 725v133h402v399h131v-399h401v-133h-401v-400h-131v400h-402z" />
<glyph unicode="&#xb2;" horiz-adv-x="796" d="M61 1489q92 29 180.5 48t174.5 19q160 0 239.5 -74.5t79.5 -197.5q0 -59 -21.5 -103t-51 -73t-58.5 -46.5t-41 -25.5q-25 -14 -71 -27.5t-91 -35t-78.5 -56t-33.5 -96.5v-104h217q92 0 92 41l2 106h102v-268h-602v260q0 37 12.5 75t34 71.5t49 59t60.5 38.5l197 69 q59 20 79.5 63.5t20.5 76.5q0 74 -46 102.5t-108 28.5q-39 0 -75.5 -4t-64.5 -13.5t-45 -26t-17 -40.5v-127h-97q-4 23 -8 56.5t-9 70.5t-10 71.5t-12 61.5z" />
<glyph unicode="&#xb3;" horiz-adv-x="720" d="M61 1305v231h594v-166l-192 -201q92 -16 144 -78.5t52 -154.5q0 -70 -23.5 -129t-66.5 -102t-102 -68t-129 -25q-37 0 -76 9.5t-75.5 29t-67.5 49t-51 72.5l116 84q29 -61 64 -90t90 -29t103 41t48 135q0 53 -26.5 82t-65.5 42.5t-85 16.5t-85 3l238 354h-258 q-35 0 -40 -16.5t-7 -51.5v-38h-99z" />
<glyph unicode="&#xb4;" horiz-adv-x="671" d="M164 1171l315 385l152 -147l-420 -289z" />
<glyph unicode="&#xb5;" horiz-adv-x="1492" d="M41 932v92h606v-92q-68 0 -105.5 -16.5t-55 -54.5t-20.5 -100.5t-3 -156.5v-129q0 -102 19.5 -169.5t55 -108.5t87 -58.5t114.5 -17.5t113.5 16.5t85.5 57.5t53.5 109.5t18.5 170.5v129q0 94 -3 156.5t-20.5 100.5t-55.5 54.5t-106 16.5v92h607v-92h-21q-61 0 -94 -16.5 t-49.5 -54.5t-19.5 -100.5t-3 -156.5v-65q0 -248 -117 -385h302v-154h-680q-170 0 -287 53q0 -106 5 -178t24.5 -115t58.5 -60t106 -17v-93h-600v93q68 0 104 16t50 54t15 100.5t1 156.5v594q0 94 -3 156.5t-19.5 100.5t-49 54.5t-94.5 16.5h-20z" />
<glyph unicode="&#xb6;" horiz-adv-x="1286" d="M102 1044q0 119 30 213.5t92.5 161t159.5 102t230 35.5q141 0 241.5 -35.5t164 -102t93.5 -161t30 -213.5v-1454h-160v1469q0 98 -27.5 171t-99.5 107v-1747h-233l-2 947q-115 8 -210.5 48t-164 105.5t-106.5 155.5t-38 198z" />
<glyph unicode="&#xb7;" horiz-adv-x="364" d="M61 641q0 47 28.5 83t94.5 36q61 0 90 -36t29 -83t-28.5 -82t-90.5 -35q-66 0 -94.5 35t-28.5 82z" />
<glyph unicode="&#xb8;" horiz-adv-x="741" d="M102 -303q0 6 2 16.5t13 10.5q8 0 38.5 -11.5t70.5 -24t83 -23.5t78 -11q29 0 49.5 11t20.5 40q0 23 -12.5 41t-30 31.5t-38 20.5t-38.5 7q-14 0 -32.5 -3t-41.5 -3q-14 0 -24.5 2t-10.5 13l78 252h88q-10 -37 -18 -72q-8 -31 -17.5 -63.5t-15.5 -57.5q33 10 48.5 12 t41.5 2q35 0 72 -9t66.5 -27.5t48 -47t18.5 -67.5t-20.5 -68.5t-55.5 -49t-82 -29t-100 -9.5q-45 0 -94 7t-90 21.5t-68 36t-27 52.5z" />
<glyph unicode="&#xb9;" horiz-adv-x="528" d="M61 588v98q41 0 63.5 9.5t33 29.5t12.5 54t2 83v400q0 68 -6 104.5t-20.5 53t-35 18.5t-49.5 2v96h293v-674q0 -100 11.5 -138t68.5 -38h33v-98h-406z" />
<glyph unicode="&#xba;" horiz-adv-x="866" d="M82 1210q2 68 22.5 130.5t63.5 110.5t109.5 76.5t160.5 28.5q96 0 162 -29.5t105.5 -78.5t58 -111.5t20.5 -126.5q0 -72 -19.5 -134t-61 -109t-108.5 -75t-159 -28t-158.5 28t-109.5 76t-63.5 110.5t-22.5 131.5zM109 573v154h643v-154h-643zM268 1202q0 -127 41 -175 t119 -48q37 0 68.5 10t55 37t36 73t12.5 115q0 131 -43 180.5t-119 49.5t-123 -51.5t-47 -190.5z" />
<glyph unicode="&#xbb;" horiz-adv-x="976" d="M104 113q14 31 43 84t56.5 111.5t49 115.5t21.5 98l-18 50q-18 49 -44 117.5t-55.5 140t-52.5 114.5q-4 10 10.5 15.5t24.5 5.5q4 0 38 -38t80 -93.5t97.5 -116t89.5 -105.5q35 -41 43.5 -57t8.5 -31q0 -14 -11.5 -37.5t-56.5 -72.5q-129 -147 -203.5 -237.5t-85.5 -90.5 q-10 0 -25.5 6t-9.5 21zM483 113q14 31 43 84t56.5 111.5t49 115.5t21.5 98l-19 50q-18 49 -43.5 117.5t-55 140t-52.5 114.5q-4 10 10.5 15.5t24.5 5.5q4 0 38 -38t80 -93.5t97 -116t90 -105.5q35 -41 43 -57t8 -31q0 -14 -11 -37.5t-56 -72.5q-129 -147 -204 -237.5 t-85 -90.5t-25.5 6t-9.5 21z" />
<glyph unicode="&#xbc;" horiz-adv-x="1488" d="M61 588v98q41 0 63.5 9.5t33 29.5t12.5 54t2 83v400q0 68 -6 104.5t-20.5 53t-35 18.5t-49.5 2v96h293v-674q0 -100 11.5 -138t68.5 -38h33v-98h-406zM227 0q-2 0 34 65.5t95 174t135 246t156 282.5q186 338 424 768h178q-254 -430 -457 -768q-86 -145 -169 -282.5 t-147.5 -246t-104.5 -173.5l-40 -66h-104zM690 305l429 643h174v-594q29 4 34 21.5t5 52.5v41h96v-226h-135q0 -82 12 -113.5t65 -31.5h33v-96h-405v96q74 0 92 32t18 113h-393zM881 354h238v330z" />
<glyph unicode="&#xbd;" horiz-adv-x="1675" d="M61 588v98q41 0 63.5 9.5t33 29.5t12.5 54t2 83v400q0 68 -6 104.5t-20.5 53t-35 18.5t-49.5 2v96h293v-674q0 -100 11.5 -138t68.5 -38h33v-98h-406zM227 0q-2 0 34 65.5t95 174t135 246t156 282.5q186 338 424 768h178q-254 -430 -457 -768q-86 -145 -169 -282.5 t-147.5 -246t-104.5 -173.5l-40 -66h-104zM940 895q92 29 180.5 48t174.5 19q160 0 239.5 -74.5t79.5 -197.5q0 -59 -21.5 -103t-51 -73t-58.5 -46.5t-41 -25.5q-25 -14 -71 -27.5t-91 -35t-78.5 -56t-33.5 -96.5v-104h217q92 0 92 41l2 106h102v-268h-602v260q0 37 12.5 75 t34 71.5t49 59t60.5 38.5l197 69q59 20 79.5 63.5t20.5 76.5q0 74 -46 102.5t-108 28.5q-39 0 -75.5 -4t-64.5 -13.5t-45 -26t-17 -40.5v-127h-97q-4 23 -8 56.5t-9 70.5t-10 71.5t-12 61.5z" />
<glyph unicode="&#xbe;" horiz-adv-x="1531" d="M61 1305v231h594v-166l-192 -201q92 -16 144 -78.5t52 -154.5q0 -70 -23.5 -129t-66.5 -102t-102 -68t-129 -25q-37 0 -76 9.5t-75.5 29t-67.5 49t-51 72.5l116 84q29 -61 64 -90t90 -29t103 41t48 135q0 53 -26.5 82t-65.5 42.5t-85 16.5t-85 3l238 354h-258 q-35 0 -40 -16.5t-7 -51.5v-38h-99zM309 0q-2 0 34 65.5t95 174t135 246t156 282.5q186 338 424 768h178q-254 -430 -457 -768q-86 -145 -169 -282.5t-147.5 -246t-104.5 -173.5l-40 -66h-104zM733 305l429 643h174v-594q29 4 34 21.5t5 52.5v41h96v-226h-135 q0 -82 12 -113.5t65 -31.5h33v-96h-405v96q74 0 92 32t18 113h-393zM924 354h238v330z" />
<glyph unicode="&#xbf;" horiz-adv-x="1110" d="M61 -20q0 88 33 158.5t78 121.5t89 84t69 47q66 37 111.5 66.5t75.5 66.5t43 89.5t13 131.5v72h248v-158q0 -133 -74.5 -241.5t-220.5 -169.5q-25 -10 -63.5 -29.5t-75.5 -53.5t-63.5 -85t-26.5 -127q0 -129 85 -192.5t232 -63.5q59 0 121 11t112 33.5t82 59.5t32 88 l-3 174h99q4 -39 9 -88t12 -100t15.5 -100t16.5 -88q-137 -49 -273.5 -83t-267.5 -34q-127 0 -222 34t-158.5 90t-95.5 131t-32 155zM575 1020q0 47 29 82t92 35t92 -35t29 -82t-29 -83t-92 -36q-66 0 -93.5 37t-27.5 82z" />
<glyph unicode="&#xc0;" horiz-adv-x="1640" d="M41 0v92h20q61 0 94 16.5t49.5 54.5t19.5 100.5t3 156.5v598q0 252 154 395t440 143q287 0 439.5 -144t152.5 -394v-598q0 -94 3 -156.5t19.5 -100.5t49.5 -54.5t94 -16.5h20v-92h-606v92q68 0 106 16.5t55 54.5t20.5 100.5t3.5 156.5v262h-715v-262q0 -94 3 -156.5 t20.5 -100.5t55.5 -54.5t105 -16.5v-92h-606zM463 776h715v303q0 102 -32 171t-83 110t-113.5 57.5t-126.5 16.5q-66 0 -130 -17.5t-115.5 -58.5t-83 -109.5t-31.5 -169.5v-303zM533 1901l152 147l313 -385l-45 -53z" />
<glyph unicode="&#xc1;" horiz-adv-x="1640" d="M41 0v92h20q61 0 94 16.5t49.5 54.5t19.5 100.5t3 156.5v598q0 252 154 395t440 143q287 0 439.5 -144t152.5 -394v-598q0 -94 3 -156.5t19.5 -100.5t49.5 -54.5t94 -16.5h20v-92h-606v92q68 0 106 16.5t55 54.5t20.5 100.5t3.5 156.5v262h-715v-262q0 -94 3 -156.5 t20.5 -100.5t55.5 -54.5t105 -16.5v-92h-606zM463 776h715v303q0 102 -32 171t-83 110t-113.5 57.5t-126.5 16.5q-66 0 -130 -17.5t-115.5 -58.5t-83 -109.5t-31.5 -169.5v-303zM635 1663l315 385l152 -147l-420 -289z" />
<glyph unicode="&#xc2;" horiz-adv-x="1640" d="M41 0v92h20q61 0 94 16.5t49.5 54.5t19.5 100.5t3 156.5v598q0 252 154 395t440 143q287 0 439.5 -144t152.5 -394v-598q0 -94 3 -156.5t19.5 -100.5t49.5 -54.5t94 -16.5h20v-92h-606v92q68 0 106 16.5t55 54.5t20.5 100.5t3.5 156.5v262h-715v-262q0 -94 3 -156.5 t20.5 -100.5t55.5 -54.5t105 -16.5v-92h-606zM463 776h715v303q0 102 -32 171t-83 110t-113.5 57.5t-126.5 16.5q-66 0 -130 -17.5t-115.5 -58.5t-83 -109.5t-31.5 -169.5v-303zM524 1637l258 350h74l264 -354l-14 -35l-283 176l-284 -172z" />
<glyph unicode="&#xc3;" horiz-adv-x="1640" d="M41 0v92h20q61 0 94 16.5t49.5 54.5t19.5 100.5t3 156.5v598q0 252 154 395t440 143q287 0 439.5 -144t152.5 -394v-598q0 -94 3 -156.5t19.5 -100.5t49.5 -54.5t94 -16.5h20v-92h-606v92q68 0 106 16.5t55 54.5t20.5 100.5t3.5 156.5v262h-715v-262q0 -94 3 -156.5 t20.5 -100.5t55.5 -54.5t105 -16.5v-92h-606zM463 776h715v303q0 102 -32 171t-83 110t-113.5 57.5t-126.5 16.5q-66 0 -130 -17.5t-115.5 -58.5t-83 -109.5t-31.5 -169.5v-303zM483 1711q72 225 236 225q61 0 137 -51q41 -25 72 -38.5t55 -13.5q39 0 78 28t65 58l31 -34 q-78 -213 -196 -213q-55 0 -150 53q-47 27 -84 41t-65 14q-33 0 -71 -21.5t-69 -74.5z" />
<glyph unicode="&#xc4;" horiz-adv-x="1640" d="M41 0v92h20q61 0 94 16.5t49.5 54.5t19.5 100.5t3 156.5v598q0 252 154 395t440 143q287 0 439.5 -144t152.5 -394v-598q0 -94 3 -156.5t19.5 -100.5t49.5 -54.5t94 -16.5h20v-92h-606v92q68 0 106 16.5t55 54.5t20.5 100.5t3.5 156.5v262h-715v-262q0 -94 3 -156.5 t20.5 -100.5t55.5 -54.5t105 -16.5v-92h-606zM463 776h715v303q0 102 -32 171t-83 110t-113.5 57.5t-126.5 16.5q-66 0 -130 -17.5t-115.5 -58.5t-83 -109.5t-31.5 -169.5v-303zM499 1811q0 51 37 88t90 37t91 -37t38 -88q0 -55 -37.5 -91t-91.5 -36q-53 0 -90 36t-37 91z M884 1811q0 51 38 88t87 37q53 0 92 -37t39 -88q0 -55 -37.5 -91t-93.5 -36q-51 0 -88 36t-37 91z" />
<glyph unicode="&#xc5;" horiz-adv-x="1640" d="M41 0v92h20q61 0 94 16.5t49.5 54.5t19.5 100.5t3 156.5v598q0 252 154 395t440 143q287 0 439.5 -144t152.5 -394v-598q0 -94 3 -156.5t19.5 -100.5t49.5 -54.5t94 -16.5h20v-92h-606v92q68 0 106 16.5t55 54.5t20.5 100.5t3.5 156.5v262h-715v-262q0 -94 3 -156.5 t20.5 -100.5t55.5 -54.5t105 -16.5v-92h-606zM463 776h715v303q0 102 -32 171t-83 110t-113.5 57.5t-126.5 16.5q-66 0 -130 -17.5t-115.5 -58.5t-83 -109.5t-31.5 -169.5v-303zM614 1797q0 41 15.5 77.5t43 64.5t64.5 43t80 15t80 -16.5t64.5 -44t43 -64.5t15.5 -78 q0 -43 -16.5 -79.5t-44 -64.5t-65.5 -43t-79 -15q-86 0 -143.5 60.5t-57.5 144.5zM700 1794q0 -47 34 -80.5t83 -33.5q47 0 81 32.5t34 81.5q0 47 -34 82t-81 35q-49 0 -83 -34.5t-34 -82.5z" />
<glyph unicode="&#xc6;" horiz-adv-x="2201" d="M41 0v92h20q61 0 94 16.5t49.5 54.5t19.5 100.5t3 156.5v577q0 252 154 395.5t440 143.5h1340v-113h-654q-49 0 -76.5 -19.5t-41 -59t-15.5 -101t-2 -145.5v-228h559v-94h-559v-305q0 -102 32 -170t82 -108.5t113.5 -58t126.5 -17.5h435v-117h-435q-289 0 -439 144.5 t-150 392.5v145h-674v-262q0 -94 3 -156.5t20.5 -100.5t55.5 -54.5t105 -16.5v-92h-606zM463 776h674v322q0 84 -2 145.5t-15.5 101t-41 59t-77.5 19.5h-180q-66 0 -130 -17t-114.5 -58t-82 -110t-31.5 -169v-293z" />
<glyph unicode="&#xc7;" horiz-adv-x="1523" d="M102 774q0 180 63.5 325.5t174.5 247t259.5 155.5t318.5 54q117 0 260 -25.5t284 -74.5q-8 -39 -16 -88t-15.5 -100t-12.5 -100.5t-9 -88.5h-98l2 174q0 51 -42 86t-103.5 56.5t-131 31t-125.5 9.5q-129 0 -232.5 -48.5t-174 -131t-108.5 -197.5t-38 -246 q0 -147 47.5 -273t132.5 -218.5t204.5 -144.5t265.5 -52q117 0 222 35t204 100l-11 -156q-98 -55 -232 -89.5t-269 -34.5q-51 0 -97 6l-30 -113q33 10 48 12t42 2q35 0 71.5 -9t66.5 -27.5t48.5 -47t18.5 -67.5t-20.5 -68.5t-55.5 -49t-82 -29t-101 -9.5q-45 0 -94 7 t-90 21.5t-67.5 36t-26.5 52.5q0 6 2 16.5t12 10.5q8 0 39 -11.5t71 -24t83 -23.5t78 -11q29 0 49 11t20 40q0 23 -12 41t-29.5 31.5t-38 20.5t-39.5 7q-14 0 -32.5 -3t-40.5 -3q-14 0 -24.5 2t-10.5 13l57 184q-131 27 -246.5 91.5t-201.5 162.5t-136.5 230t-50.5 292z" />
<glyph unicode="&#xc8;" horiz-adv-x="1230" d="M-20 1444v92h1210v-113h-653q-49 0 -77 -19.5t-41 -59t-15.5 -101t-2.5 -145.5v-228h560v-94h-560v-305q0 -102 32 -170t82 -108.5t113.5 -58t127.5 -17.5h434v-117h-434q-289 0 -439.5 144.5t-150.5 392.5v579q0 94 -3 156.5t-19.5 100.5t-49.5 54.5t-94 16.5h-20z M328 1901l152 147l313 -385l-45 -53z" />
<glyph unicode="&#xc9;" horiz-adv-x="1230" d="M-20 1444v92h1210v-113h-653q-49 0 -77 -19.5t-41 -59t-15.5 -101t-2.5 -145.5v-228h560v-94h-560v-305q0 -102 32 -170t82 -108.5t113.5 -58t127.5 -17.5h434v-117h-434q-289 0 -439.5 144.5t-150.5 392.5v579q0 94 -3 156.5t-19.5 100.5t-49.5 54.5t-94 16.5h-20z M430 1663l315 385l152 -147l-420 -289z" />
<glyph unicode="&#xca;" horiz-adv-x="1230" d="M-20 1444v92h1210v-113h-653q-49 0 -77 -19.5t-41 -59t-15.5 -101t-2.5 -145.5v-228h560v-94h-560v-305q0 -102 32 -170t82 -108.5t113.5 -58t127.5 -17.5h434v-117h-434q-289 0 -439.5 144.5t-150.5 392.5v579q0 94 -3 156.5t-19.5 100.5t-49.5 54.5t-94 16.5h-20z M348 1637l258 350h74l264 -354l-14 -35l-283 176l-284 -172z" />
<glyph unicode="&#xcb;" horiz-adv-x="1230" d="M-20 1444v92h1210v-113h-653q-49 0 -77 -19.5t-41 -59t-15.5 -101t-2.5 -145.5v-228h560v-94h-560v-305q0 -102 32 -170t82 -108.5t113.5 -58t127.5 -17.5h434v-117h-434q-289 0 -439.5 144.5t-150.5 392.5v579q0 94 -3 156.5t-19.5 100.5t-49.5 54.5t-94 16.5h-20z M307 1811q0 51 37 88t90 37t91 -37t38 -88q0 -55 -37.5 -91t-91.5 -36q-53 0 -90 36t-37 91zM692 1811q0 51 38 88t87 37q53 0 92 -37t39 -88q0 -55 -37.5 -91t-93.5 -36q-51 0 -88 36t-37 91z" />
<glyph unicode="&#xcc;" horiz-adv-x="690" d="M41 1444v92h606v-92q-68 0 -105.5 -16.5t-55 -54.5t-20.5 -100.5t-3 -156.5v-696q0 -94 3 -156.5t19.5 -100.5t49 -54.5t94.5 -16.5h20v-92h-606v92q68 0 105.5 16.5t55 54.5t20.5 100.5t3 156.5v696q0 94 -3 156.5t-19.5 100.5t-49 54.5t-94.5 16.5h-20zM61 1901 l152 147l313 -385l-45 -53z" />
<glyph unicode="&#xcd;" horiz-adv-x="690" d="M41 1444v92h606v-92q-68 0 -105.5 -16.5t-55 -54.5t-20.5 -100.5t-3 -156.5v-696q0 -94 3 -156.5t19.5 -100.5t49 -54.5t94.5 -16.5h20v-92h-606v92q68 0 105.5 16.5t55 54.5t20.5 100.5t3 156.5v696q0 94 -3 156.5t-19.5 100.5t-49 54.5t-94.5 16.5h-20zM164 1663 l315 385l152 -147l-420 -289z" />
<glyph unicode="&#xce;" horiz-adv-x="690" d="M41 1444v92h606v-92q-68 0 -105.5 -16.5t-55 -54.5t-20.5 -100.5t-3 -156.5v-696q0 -94 3 -156.5t19.5 -100.5t49 -54.5t94.5 -16.5h20v-92h-606v92q68 0 105.5 16.5t55 54.5t20.5 100.5t3 156.5v696q0 94 -3 156.5t-19.5 100.5t-49 54.5t-94.5 16.5h-20zM49 1657 l258 350h74l264 -354l-14 -35l-283 176l-284 -172z" />
<glyph unicode="&#xcf;" horiz-adv-x="690" d="M26 1811q0 51 37 88t90 37t91 -37t38 -88q0 -55 -37.5 -91t-91.5 -36q-53 0 -90 36t-37 91zM41 1444v92h606v-92q-68 0 -105.5 -16.5t-55 -54.5t-20.5 -100.5t-3 -156.5v-696q0 -94 3 -156.5t19.5 -100.5t49 -54.5t94.5 -16.5h20v-92h-606v92q68 0 105.5 16.5t55 54.5 t20.5 100.5t3 156.5v696q0 94 -3 156.5t-19.5 100.5t-49 54.5t-94.5 16.5h-20zM411 1811q0 51 38 88t87 37q53 0 92 -37t39 -88q0 -55 -37.5 -91t-93.5 -36q-51 0 -88 36t-37 91z" />
<glyph unicode="&#xd0;" horiz-adv-x="1499" d="M41 1444v92h606q180 0 319.5 -53t234.5 -149.5t145.5 -233.5t50.5 -305q0 -172 -49.5 -317.5t-134.5 -252t-197.5 -166t-241.5 -59.5h-731v92q68 0 105.5 16.5t55 54.5t20.5 100.5t3 156.5v270h-153v154h153v272q0 94 -3 156.5t-19.5 100.5t-49 54.5t-94.5 16.5h-20z M463 420q0 -78 1 -129t6 -84t13.5 -49.5t24.5 -24.5q14 -8 34.5 -12t43 -6t44 -2h34.5q174 0 273 63.5t147.5 154.5t59.5 189t11 170q0 176 -30.5 309.5t-98.5 221.5t-177 132t-269 44q-51 0 -67.5 -6.5t-27.5 -22.5q-10 -20 -16 -65.5t-6 -100.5v-358h354v-154h-354v-270z " />
<glyph unicode="&#xd1;" horiz-adv-x="1640" d="M41 0v92h20q61 0 94 16.5t49.5 54.5t19.5 100.5t3 156.5v598q0 252 154 395t448 143q137 0 246 -37.5t184.5 -107.5t114.5 -169t39 -224v-598q0 -94 3 -156.5t19.5 -100.5t49.5 -54.5t94 -16.5h20v-92h-606v92q68 0 106 16.5t55 54.5t20.5 100.5t3.5 156.5v661 q0 102 -32 171t-83 110t-115.5 57.5t-128.5 16.5q-63 0 -126.5 -17.5t-115 -58.5t-83 -109.5t-31.5 -169.5v-661q0 -94 3 -156.5t20.5 -100.5t55.5 -54.5t105 -16.5v-92h-606zM485 1711q72 225 236 225q61 0 137 -51q41 -25 72 -38.5t55 -13.5q39 0 78 28t65 58l31 -34 q-78 -213 -196 -213q-55 0 -150 53q-47 27 -84 41t-65 14q-33 0 -71 -21.5t-69 -74.5z" />
<glyph unicode="&#xd2;" horiz-adv-x="1472" d="M143 518v500q0 252 154 395t440 143q287 0 439.5 -144t152.5 -394v-500q0 -250 -152.5 -394t-439.5 -144t-440.5 143t-153.5 395zM379 455q0 -102 31.5 -170t83 -109t116 -58.5t129.5 -17.5q63 0 126 16.5t114 57.5t83 109.5t32 171.5v626q0 102 -32 171t-83 110 t-113.5 57.5t-126.5 16.5q-66 0 -130 -17.5t-115.5 -58.5t-83 -109.5t-31.5 -169.5v-626zM471 1901l152 147l313 -385l-45 -53z" />
<glyph unicode="&#xd3;" horiz-adv-x="1472" d="M143 518v500q0 252 154 395t440 143q287 0 439.5 -144t152.5 -394v-500q0 -250 -152.5 -394t-439.5 -144t-440.5 143t-153.5 395zM379 455q0 -102 31.5 -170t83 -109t116 -58.5t129.5 -17.5q63 0 126 16.5t114 57.5t83 109.5t32 171.5v626q0 102 -32 171t-83 110 t-113.5 57.5t-126.5 16.5q-66 0 -130 -17.5t-115.5 -58.5t-83 -109.5t-31.5 -169.5v-626zM553 1663l315 385l152 -147l-420 -289z" />
<glyph unicode="&#xd4;" horiz-adv-x="1472" d="M143 518v500q0 252 154 395t440 143q287 0 439.5 -144t152.5 -394v-500q0 -250 -152.5 -394t-439.5 -144t-440.5 143t-153.5 395zM379 455q0 -102 31.5 -170t83 -109t116 -58.5t129.5 -17.5q63 0 126 16.5t114 57.5t83 109.5t32 171.5v626q0 102 -32 171t-83 110 t-113.5 57.5t-126.5 16.5q-66 0 -130 -17.5t-115.5 -58.5t-83 -109.5t-31.5 -169.5v-626zM438 1637l258 350h74l264 -354l-14 -35l-283 176l-284 -172z" />
<glyph unicode="&#xd5;" horiz-adv-x="1472" d="M143 518v500q0 252 154 395t440 143q287 0 439.5 -144t152.5 -394v-500q0 -250 -152.5 -394t-439.5 -144t-440.5 143t-153.5 395zM379 455q0 -102 31.5 -170t83 -109t116 -58.5t129.5 -17.5q63 0 126 16.5t114 57.5t83 109.5t32 171.5v626q0 102 -32 171t-83 110 t-113.5 57.5t-126.5 16.5q-66 0 -130 -17.5t-115.5 -58.5t-83 -109.5t-31.5 -169.5v-626zM401 1711q72 225 236 225q61 0 137 -51q41 -25 72 -38.5t55 -13.5q39 0 78 28t65 58l31 -34q-78 -213 -196 -213q-55 0 -150 53q-47 27 -84 41t-65 14q-33 0 -71 -21.5t-69 -74.5z " />
<glyph unicode="&#xd6;" horiz-adv-x="1472" d="M143 518v500q0 252 154 395t440 143q287 0 439.5 -144t152.5 -394v-500q0 -250 -152.5 -394t-439.5 -144t-440.5 143t-153.5 395zM379 455q0 -102 31.5 -170t83 -109t116 -58.5t129.5 -17.5q63 0 126 16.5t114 57.5t83 109.5t32 171.5v626q0 102 -32 171t-83 110 t-113.5 57.5t-126.5 16.5q-66 0 -130 -17.5t-115.5 -58.5t-83 -109.5t-31.5 -169.5v-626zM417 1811q0 51 37 88t90 37t91 -37t38 -88q0 -55 -37.5 -91t-91.5 -36q-53 0 -90 36t-37 91zM802 1811q0 51 38 88t87 37q53 0 92 -37t39 -88q0 -55 -37.5 -91t-93.5 -36 q-51 0 -88 36t-37 91z" />
<glyph unicode="&#xd7;" horiz-adv-x="878" d="M61 938l95 94l284 -284l283 282l92 -92l-283 -283l285 -284l-94 -95l-285 285l-282 -282l-93 92l283 282z" />
<glyph unicode="&#xd8;" horiz-adv-x="1472" d="M143 518v500q0 252 154 395t440 143q109 0 197 -21.5t158 -61.5l98 178h108l-129 -234q160 -143 160 -399v-500q0 -250 -152.5 -394t-439.5 -144q-188 0 -323 65l-92 -166h-105l117 213q-190 143 -191 426zM379 455q0 -119 45 -199l590 1073q-53 59 -127 83t-148 24 q-66 0 -130 -17.5t-115.5 -58.5t-83 -109.5t-31.5 -169.5v-626zM487 180q51 -45 118 -62.5t134 -17.5q63 0 126 16.5t114 57.5t83 109.5t32 171.5v626q0 45 -7.5 83t-17.5 71z" />
<glyph unicode="&#xd9;" horiz-adv-x="1517" d="M-20 1444v92h606v-92q-68 0 -106 -16.5t-55 -54.5t-20.5 -100.5t-3.5 -156.5v-661q0 -102 32 -170t83 -109t114.5 -58.5t127.5 -17.5q63 0 127.5 16.5t116 57.5t83 109.5t31.5 171.5v661q0 94 -3 156.5t-20.5 100.5t-55.5 54.5t-105 16.5v92h606v-92h-20q-61 0 -94 -16.5 t-49.5 -54.5t-19.5 -100.5t-3 -156.5v-598q0 -125 -39 -224t-115 -169t-184.5 -107.5t-245.5 -37.5q-295 0 -448.5 143t-153.5 395v598q0 94 -3 156.5t-19.5 100.5t-49.5 54.5t-94 16.5h-20zM451 1901l152 147l313 -385l-45 -53z" />
<glyph unicode="&#xda;" horiz-adv-x="1517" d="M-20 1444v92h606v-92q-68 0 -106 -16.5t-55 -54.5t-20.5 -100.5t-3.5 -156.5v-661q0 -102 32 -170t83 -109t114.5 -58.5t127.5 -17.5q63 0 127.5 16.5t116 57.5t83 109.5t31.5 171.5v661q0 94 -3 156.5t-20.5 100.5t-55.5 54.5t-105 16.5v92h606v-92h-20q-61 0 -94 -16.5 t-49.5 -54.5t-19.5 -100.5t-3 -156.5v-598q0 -125 -39 -224t-115 -169t-184.5 -107.5t-245.5 -37.5q-295 0 -448.5 143t-153.5 395v598q0 94 -3 156.5t-19.5 100.5t-49.5 54.5t-94 16.5h-20zM635 1663l315 385l152 -147l-420 -289z" />
<glyph unicode="&#xdb;" horiz-adv-x="1517" d="M-20 1444v92h606v-92q-68 0 -106 -16.5t-55 -54.5t-20.5 -100.5t-3.5 -156.5v-661q0 -102 32 -170t83 -109t114.5 -58.5t127.5 -17.5q63 0 127.5 16.5t116 57.5t83 109.5t31.5 171.5v661q0 94 -3 156.5t-20.5 100.5t-55.5 54.5t-105 16.5v92h606v-92h-20q-61 0 -94 -16.5 t-49.5 -54.5t-19.5 -100.5t-3 -156.5v-598q0 -125 -39 -224t-115 -169t-184.5 -107.5t-245.5 -37.5q-295 0 -448.5 143t-153.5 395v598q0 94 -3 156.5t-19.5 100.5t-49.5 54.5t-94 16.5h-20zM462 1678l258 350h74l264 -354l-14 -35l-283 176l-284 -172z" />
<glyph unicode="&#xdc;" horiz-adv-x="1517" d="M-20 1444v92h606v-92q-68 0 -106 -16.5t-55 -54.5t-20.5 -100.5t-3.5 -156.5v-661q0 -102 32 -170t83 -109t114.5 -58.5t127.5 -17.5q63 0 127.5 16.5t116 57.5t83 109.5t31.5 171.5v661q0 94 -3 156.5t-20.5 100.5t-55.5 54.5t-105 16.5v92h606v-92h-20q-61 0 -94 -16.5 t-49.5 -54.5t-19.5 -100.5t-3 -156.5v-598q0 -125 -39 -224t-115 -169t-184.5 -107.5t-245.5 -37.5q-295 0 -448.5 143t-153.5 395v598q0 94 -3 156.5t-19.5 100.5t-49.5 54.5t-94 16.5h-20zM438 1811q0 51 37 88t90 37t91 -37t38 -88q0 -55 -37.5 -91t-91.5 -36 q-53 0 -90 36t-37 91zM823 1811q0 51 38 88t87 37q53 0 92 -37t39 -88q0 -55 -37.5 -91t-93.5 -36q-51 0 -88 36t-37 91z" />
<glyph unicode="&#xdd;" horiz-adv-x="1517" d="M-20 1444v92h606v-92q-68 0 -106 -16.5t-55 -54.5t-20.5 -100.5t-3.5 -156.5v-115q0 -102 32 -169.5t83 -108.5t115.5 -58.5t130.5 -17.5q63 0 125.5 16.5t114 57.5t83 109.5t31.5 170.5v115q0 94 -3 156.5t-20.5 100.5t-55.5 54.5t-105 16.5v92h606v-94h-20 q-61 0 -94 -15.5t-49.5 -52.5t-19.5 -99.5t-3 -156.5v-53q0 -223 -122 -363.5t-349 -169.5v-112q0 -94 3 -156.5t19.5 -100.5t49 -54.5t94.5 -16.5h20v-92h-606v92q68 0 105.5 16.5t55 54.5t20.5 100.5t3 156.5v112q-236 31 -357.5 170.5t-121.5 362.5v51q0 94 -3 156.5 t-19.5 100.5t-49.5 54.5t-94 16.5h-20zM615 1663l315 385l152 -147l-420 -289z" />
<glyph unicode="&#xde;" horiz-adv-x="1335" d="M41 1444v92h606v-92q-55 0 -91 -13.5t-55.5 -41t-27.5 -70.5t-10 -100q115 59 299 59q133 0 230.5 -36t159.5 -102.5t92 -160.5t30 -213t-30 -213t-92 -160.5t-159.5 -101.5t-230.5 -35q-182 0 -299 57v-63q0 -88 37 -123t129 -35h20v-92h-606v92q68 0 105.5 13.5t55 48 t20.5 95t3 154.5v697q0 94 -3 159.5t-19.5 106.5t-49 59.5t-94.5 18.5h-20zM463 731q0 -102 20.5 -169.5t59.5 -108.5t91 -58.5t118 -17.5q63 0 116.5 16.5t91 57.5t58 109.5t20.5 170.5v72q0 102 -20.5 170.5t-58 109.5t-91 57.5t-116.5 16.5q-66 0 -118 -17.5t-91 -58.5 t-59.5 -109.5t-20.5 -168.5v-72z" />
<glyph unicode="&#xdf;" horiz-adv-x="1292" d="M-164 -291q78 0 143.5 17.5t112.5 58.5t74 108.5t27 169.5v787h-144v154h144q0 121 29.5 222t89 175t150.5 114.5t214 40.5q100 0 186 -30.5t148.5 -96t98.5 -167t38 -244.5q2 -12 -7.5 -49t-31 -63.5t-56 -25.5t-83.5 66q-39 0 -76 -8t-66.5 -26.5t-48 -47t-18.5 -71.5 q0 -41 17.5 -71t43 -51.5t55 -35.5t54.5 -25q45 -18 95 -42.5t91 -61.5t67.5 -88t26.5 -125q0 -86 -35.5 -146.5t-93 -97.5t-129 -54.5t-143.5 -17.5q-37 0 -59.5 4.5t-42 8.5t-45 8t-70.5 4l-35 277h88q16 -41 27.5 -77t26 -62.5t39 -42t67.5 -15.5q37 0 75 11t69.5 32.5 t52 52.5t20.5 72q0 39 -19.5 64.5t-51 44t-73.5 33t-85 32.5q-35 12 -73 33.5t-71 58.5t-54.5 90t-21.5 131q0 166 104.5 238t299.5 84q4 195 -68.5 284t-208.5 89q-127 0 -199.5 -84t-72.5 -283v-938q0 -248 -150.5 -391.5t-439.5 -145.5h-2v119z" />
<glyph unicode="&#xe0;" horiz-adv-x="1290" d="M102 506q0 121 30 217t92.5 162.5t160.5 102.5t236 36q137 0 236 -36t163.5 -102.5t95.5 -160.5t31 -213v-512h-238l2 190q-37 -68 -74.5 -108.5t-77.5 -64t-84 -30.5t-93 -7q-127 0 -217.5 38.5t-148.5 107.5t-86 166t-28 214zM328 1409l152 147l313 -385l-45 -53z M338 455q0 -100 17.5 -168t50 -110t79.5 -59.5t109 -17.5q72 0 130 23.5t100 76t64.5 136.5t22.5 207v4q0 102 -20.5 170.5t-58 109.5t-91 58.5t-118.5 17.5q-63 0 -115.5 -17.5t-90.5 -58.5t-58.5 -108.5t-20.5 -169.5v-94z" />
<glyph unicode="&#xe1;" horiz-adv-x="1290" d="M102 506q0 121 30 217t92.5 162.5t160.5 102.5t236 36q137 0 236 -36t163.5 -102.5t95.5 -160.5t31 -213v-512h-238l2 190q-37 -68 -74.5 -108.5t-77.5 -64t-84 -30.5t-93 -7q-127 0 -217.5 38.5t-148.5 107.5t-86 166t-28 214zM338 455q0 -100 17.5 -168t50 -110 t79.5 -59.5t109 -17.5q72 0 130 23.5t100 76t64.5 136.5t22.5 207v4q0 102 -20.5 170.5t-58 109.5t-91 58.5t-118.5 17.5q-63 0 -115.5 -17.5t-90.5 -58.5t-58.5 -108.5t-20.5 -169.5v-94zM471 1171l315 385l152 -147l-420 -289z" />
<glyph unicode="&#xe2;" horiz-adv-x="1290" d="M102 506q0 121 30 217t92.5 162.5t160.5 102.5t236 36q137 0 236 -36t163.5 -102.5t95.5 -160.5t31 -213v-512h-238l2 190q-37 -68 -74.5 -108.5t-77.5 -64t-84 -30.5t-93 -7q-127 0 -217.5 38.5t-148.5 107.5t-86 166t-28 214zM327 1186l258 350h74l264 -354l-14 -35 l-283 176l-284 -172zM338 455q0 -100 17.5 -168t50 -110t79.5 -59.5t109 -17.5q72 0 130 23.5t100 76t64.5 136.5t22.5 207v4q0 102 -20.5 170.5t-58 109.5t-91 58.5t-118.5 17.5q-63 0 -115.5 -17.5t-90.5 -58.5t-58.5 -108.5t-20.5 -169.5v-94z" />
<glyph unicode="&#xe3;" horiz-adv-x="1290" d="M102 506q0 121 30 217t92.5 162.5t160.5 102.5t236 36q137 0 236 -36t163.5 -102.5t95.5 -160.5t31 -213v-512h-238l2 190q-37 -68 -74.5 -108.5t-77.5 -64t-84 -30.5t-93 -7q-127 0 -217.5 38.5t-148.5 107.5t-86 166t-28 214zM288 1260q72 225 236 225q61 0 137 -51 q41 -25 72 -38.5t55 -13.5q39 0 78 28t65 58l31 -34q-78 -213 -196 -213q-55 0 -150 53q-47 27 -84 41t-65 14q-33 0 -71 -21.5t-69 -74.5zM338 455q0 -100 17.5 -168t50 -110t79.5 -59.5t109 -17.5q72 0 130 23.5t100 76t64.5 136.5t22.5 207v4q0 102 -20.5 170.5 t-58 109.5t-91 58.5t-118.5 17.5q-63 0 -115.5 -17.5t-90.5 -58.5t-58.5 -108.5t-20.5 -169.5v-94z" />
<glyph unicode="&#xe4;" horiz-adv-x="1290" d="M102 506q0 121 30 217t92.5 162.5t160.5 102.5t236 36q137 0 236 -36t163.5 -102.5t95.5 -160.5t31 -213v-512h-238l2 190q-37 -68 -74.5 -108.5t-77.5 -64t-84 -30.5t-93 -7q-127 0 -217.5 38.5t-148.5 107.5t-86 166t-28 214zM305 1360q0 51 37 88t90 37t91 -37t38 -88 q0 -55 -37.5 -91t-91.5 -36q-53 0 -90 36t-37 91zM338 455q0 -100 17.5 -168t50 -110t79.5 -59.5t109 -17.5q72 0 130 23.5t100 76t64.5 136.5t22.5 207v4q0 102 -20.5 170.5t-58 109.5t-91 58.5t-118.5 17.5q-63 0 -115.5 -17.5t-90.5 -58.5t-58.5 -108.5t-20.5 -169.5v-94 zM690 1360q0 51 38 88t87 37q53 0 92 -37t39 -88q0 -55 -37.5 -91t-93.5 -36q-51 0 -88 36t-37 91z" />
<glyph unicode="&#xe5;" horiz-adv-x="1290" d="M102 506q0 121 30 217t92.5 162.5t160.5 102.5t236 36q137 0 236 -36t163.5 -102.5t95.5 -160.5t31 -213v-512h-238l2 190q-37 -68 -74.5 -108.5t-77.5 -64t-84 -30.5t-93 -7q-127 0 -217.5 38.5t-148.5 107.5t-86 166t-28 214zM338 455q0 -100 17.5 -168t50 -110 t79.5 -59.5t109 -17.5q72 0 130 23.5t100 76t64.5 136.5t22.5 207v4q0 102 -20.5 170.5t-58 109.5t-91 58.5t-118.5 17.5q-63 0 -115.5 -17.5t-90.5 -58.5t-58.5 -108.5t-20.5 -169.5v-94zM421 1346q0 41 15.5 77.5t43 64.5t64.5 43t80 15t80 -16.5t64.5 -44t43 -64.5 t15.5 -78q0 -43 -16.5 -79.5t-44 -64.5t-65.5 -43t-79 -15q-86 0 -143.5 60.5t-57.5 144.5zM507 1343q0 -47 34 -80.5t83 -33.5q47 0 81 32.5t34 81.5q0 47 -34 82t-81 35q-49 0 -83 -34.5t-34 -82.5z" />
<glyph unicode="&#xe6;" horiz-adv-x="2056" d="M102 506q0 121 30 217t92.5 162.5t160.5 102.5t236 36q145 0 246.5 -40t164.5 -114q66 74 165 114t230 40q137 0 236.5 -43t164 -113.5t95.5 -165t31 -194.5v-62h-807q0 -55 20.5 -117.5t63.5 -115.5t111.5 -89t166.5 -36q100 0 234 35l16 -68q-45 -20 -83 -34.5 t-73.5 -23.5t-71.5 -13t-79 -4q-88 0 -165 17t-140 54v-51h-238l2 190q-37 -68 -74.5 -108.5t-77.5 -64t-84 -30.5t-93 -7q-127 0 -217.5 38.5t-148.5 107.5t-86 166t-28 214zM338 455q0 -100 17.5 -168t50 -110t79.5 -59.5t109 -17.5q72 0 130 23.5t100 76t64.5 136.5 t22.5 207v4q0 102 -20.5 170.5t-58 109.5t-91 58.5t-118.5 17.5q-63 0 -115.5 -17.5t-90.5 -58.5t-58.5 -108.5t-20.5 -169.5v-94zM1147 573h571q0 168 -78.5 244t-199.5 76q-78 0 -133.5 -27.5t-90 -71.5t-52 -101.5t-17.5 -119.5z" />
<glyph unicode="&#xe7;" horiz-adv-x="1116" d="M102 481q0 115 39 213.5t108.5 169t167 110.5t214.5 40q84 0 153.5 -19.5t123 -51.5t89 -72t52.5 -78l-142 -97q-29 84 -96.5 133.5t-169.5 49.5q-68 0 -126 -22.5t-103 -68t-71 -110t-26 -146.5q0 -102 39 -182t106.5 -134t156 -83t186.5 -29q55 0 117.5 10.5 t130.5 32.5l4 -65q-29 -12 -69 -30.5t-92 -34t-116.5 -26.5t-138.5 -11q-14 0 -26.5 1t-24.5 1l-29 -109q33 10 48.5 12t41.5 2q35 0 72 -9t66.5 -27.5t48 -47t18.5 -67.5t-20.5 -68.5t-55.5 -49t-82 -29t-100 -9.5q-45 0 -94 7t-90 21.5t-68 36t-27 52.5q0 6 2.5 16.5 t12.5 10.5q8 0 38.5 -11.5t70.5 -24t83 -23.5t78 -11q29 0 49.5 11t20.5 40q0 23 -12.5 41t-30 31.5t-38 20.5t-38.5 7q-14 0 -32.5 -3t-41.5 -3q-14 0 -24.5 2t-10.5 13l56 178q-102 18 -177 65t-124 111.5t-73 145.5t-24 167z" />
<glyph unicode="&#xe8;" horiz-adv-x="1247" d="M102 506q0 242 134.5 380t381.5 138q137 0 236.5 -43t164 -113.5t95.5 -165t31 -194.5v-62h-807q0 -55 20.5 -117.5t63.5 -115.5t111.5 -89t166.5 -36q100 0 234 35l16 -68q-45 -20 -83 -34.5t-73.5 -23.5t-71.5 -13t-79 -4q-119 0 -218 32.5t-171 98t-112 164t-40 231.5 zM338 573h571q0 168 -78.5 244t-199.5 76q-78 0 -133.5 -27.5t-90 -71.5t-52 -101.5t-17.5 -119.5zM348 1409l152 147l313 -385l-45 -53z" />
<glyph unicode="&#xe9;" horiz-adv-x="1247" d="M102 506q0 242 134.5 380t381.5 138q137 0 236.5 -43t164 -113.5t95.5 -165t31 -194.5v-62h-807q0 -55 20.5 -117.5t63.5 -115.5t111.5 -89t166.5 -36q100 0 234 35l16 -68q-45 -20 -83 -34.5t-73.5 -23.5t-71.5 -13t-79 -4q-119 0 -218 32.5t-171 98t-112 164t-40 231.5 zM338 573h571q0 168 -78.5 244t-199.5 76q-78 0 -133.5 -27.5t-90 -71.5t-52 -101.5t-17.5 -119.5zM451 1171l315 385l152 -147l-420 -289z" />
<glyph unicode="&#xea;" horiz-adv-x="1247" d="M102 506q0 242 134.5 380t381.5 138q137 0 236.5 -43t164 -113.5t95.5 -165t31 -194.5v-62h-807q0 -55 20.5 -117.5t63.5 -115.5t111.5 -89t166.5 -36q100 0 234 35l16 -68q-45 -20 -83 -34.5t-73.5 -23.5t-71.5 -13t-79 -4q-119 0 -218 32.5t-171 98t-112 164t-40 231.5 zM325 1186l258 350h74l264 -354l-14 -35l-283 176l-284 -172zM338 573h571q0 168 -78.5 244t-199.5 76q-78 0 -133.5 -27.5t-90 -71.5t-52 -101.5t-17.5 -119.5z" />
<glyph unicode="&#xeb;" horiz-adv-x="1247" d="M102 506q0 242 134.5 380t381.5 138q137 0 236.5 -43t164 -113.5t95.5 -165t31 -194.5v-62h-807q0 -55 20.5 -117.5t63.5 -115.5t111.5 -89t166.5 -36q100 0 234 35l16 -68q-45 -20 -83 -34.5t-73.5 -23.5t-71.5 -13t-79 -4q-119 0 -218 32.5t-171 98t-112 164t-40 231.5 zM305 1360q0 51 37 88t90 37t91 -37t38 -88q0 -55 -37.5 -91t-91.5 -36q-53 0 -90 36t-37 91zM338 573h571q0 168 -78.5 244t-199.5 76q-78 0 -133.5 -27.5t-90 -71.5t-52 -101.5t-17.5 -119.5zM690 1360q0 51 38 88t87 37q53 0 92 -37t39 -88q0 -55 -37.5 -91t-93.5 -36 q-51 0 -88 36t-37 91z" />
<glyph unicode="&#xec;" horiz-adv-x="729" d="M61 911v93h607v-93q-68 0 -106 -16t-55.5 -54t-20.5 -100.5t-3 -156.5v-164q0 -94 3 -156.5t19.5 -100.5t49.5 -54.5t94 -16.5h19v-92h-605v92q68 0 106 16.5t55.5 54.5t20.5 100.5t3 156.5v164q0 94 -3 156.5t-19.5 100.5t-49.5 54t-94 16h-21zM102 1409l152 147 l313 -385l-45 -53z" />
<glyph unicode="&#xed;" horiz-adv-x="729" d="M61 911v93h607v-93q-68 0 -106 -16t-55.5 -54t-20.5 -100.5t-3 -156.5v-164q0 -94 3 -156.5t19.5 -100.5t49.5 -54.5t94 -16.5h19v-92h-605v92q68 0 106 16.5t55.5 54.5t20.5 100.5t3 156.5v164q0 94 -3 156.5t-19.5 100.5t-49.5 54t-94 16h-21zM164 1171l315 385 l152 -147l-420 -289z" />
<glyph unicode="&#xee;" horiz-adv-x="729" d="M61 911v93h607v-93q-68 0 -106 -16t-55.5 -54t-20.5 -100.5t-3 -156.5v-164q0 -94 3 -156.5t19.5 -100.5t49.5 -54.5t94 -16.5h19v-92h-605v92q68 0 106 16.5t55.5 54.5t20.5 100.5t3 156.5v164q0 94 -3 156.5t-19.5 100.5t-49.5 54t-94 16h-21zM69 1186l258 350h74 l264 -354l-14 -35l-283 176l-284 -172z" />
<glyph unicode="&#xef;" horiz-adv-x="729" d="M47 1360q0 51 37 88t90 37t91 -37t38 -88q0 -55 -37.5 -91t-91.5 -36q-53 0 -90 36t-37 91zM61 911v93h607v-93q-68 0 -106 -16t-55.5 -54t-20.5 -100.5t-3 -156.5v-164q0 -94 3 -156.5t19.5 -100.5t49.5 -54.5t94 -16.5h19v-92h-605v92q68 0 106 16.5t55.5 54.5 t20.5 100.5t3 156.5v164q0 94 -3 156.5t-19.5 100.5t-49.5 54t-94 16h-21zM432 1360q0 51 38 88t87 37q53 0 92 -37t39 -88q0 -55 -37.5 -91t-93.5 -36q-51 0 -88 36t-37 91z" />
<glyph unicode="&#xf0;" horiz-adv-x="1255" d="M102 502q0 102 30 196.5t94.5 166t166 114.5t242.5 43q72 0 144.5 -24.5t115.5 -59.5q-10 111 -39 192.5t-76 145.5l-164 -117l-73 76l166 119q-53 47 -120 80.5t-153 58.5l35 43q104 0 187 -28.5t153 -80.5l147 107l74 -76l-139 -100q68 -70 117 -158t79.5 -186.5 t46 -198.5t15.5 -194q0 -115 -21.5 -228.5t-80 -206t-158.5 -149.5t-256 -57q-141 0 -242.5 44t-166 116.5t-94.5 166.5t-30 195zM338 455q0 -102 20.5 -170t58.5 -109t90 -58.5t118 -17.5q63 0 116.5 16.5t91 57.5t58 109.5t20.5 171.5v92q0 102 -20.5 170.5t-58 109.5 t-91 57.5t-116.5 16.5q-66 0 -118 -17.5t-90 -58.5t-58.5 -109.5t-20.5 -168.5v-92z" />
<glyph unicode="&#xf1;" d="M20 0v92h21q61 0 94 16.5t49.5 54.5t19.5 100.5t3 156.5v65q0 252 131 395.5t393 143.5q131 0 224.5 -38t152.5 -107.5t88 -169t29 -224.5v-65q0 -94 3 -156.5t19.5 -100.5t49 -54.5t94.5 -16.5h20v-92h-606v92q68 0 105.5 16.5t55 54.5t20.5 100.5t3 156.5v129 q0 100 -16.5 168.5t-49 109.5t-81.5 58.5t-115 17.5q-63 0 -115.5 -16.5t-90.5 -57.5t-58.5 -109.5t-20.5 -170.5v-129q0 -94 3.5 -156.5t20.5 -100.5t55 -54.5t106 -16.5v-92h-607zM381 1260q72 225 236 225q61 0 137 -51q41 -25 72 -38.5t55 -13.5q39 0 78 28t65 58 l31 -34q-78 -213 -196 -213q-55 0 -150 53q-47 27 -84 41t-65 14q-33 0 -71 -21.5t-69 -74.5z" />
<glyph unicode="&#xf2;" horiz-adv-x="1249" d="M102 498q0 100 31 195t94.5 169t163 118t238.5 44q137 0 235.5 -45t162 -119t92 -169t28.5 -197t-30 -195.5t-92 -164.5t-159.5 -112.5t-234.5 -41.5q-139 0 -238.5 43t-164 114.5t-95.5 164.5t-31 196zM338 455q0 -102 20.5 -170t58.5 -109t91 -58.5t119 -17.5 q63 0 115.5 16.5t90 57.5t58 109.5t20.5 171.5v92q0 102 -20.5 170.5t-58 109.5t-90 58.5t-115.5 17.5q-66 0 -119 -17.5t-91 -59.5t-58.5 -110.5t-20.5 -168.5v-92zM348 1409l152 147l313 -385l-45 -53z" />
<glyph unicode="&#xf3;" horiz-adv-x="1249" d="M102 498q0 100 31 195t94.5 169t163 118t238.5 44q137 0 235.5 -45t162 -119t92 -169t28.5 -197t-30 -195.5t-92 -164.5t-159.5 -112.5t-234.5 -41.5q-139 0 -238.5 43t-164 114.5t-95.5 164.5t-31 196zM338 455q0 -102 20.5 -170t58.5 -109t91 -58.5t119 -17.5 q63 0 115.5 16.5t90 57.5t58 109.5t20.5 171.5v92q0 102 -20.5 170.5t-58 109.5t-90 58.5t-115.5 17.5q-66 0 -119 -17.5t-91 -59.5t-58.5 -110.5t-20.5 -168.5v-92zM451 1171l315 385l152 -147l-420 -289z" />
<glyph unicode="&#xf4;" horiz-adv-x="1249" d="M102 498q0 100 31 195t94.5 169t163 118t238.5 44q137 0 235.5 -45t162 -119t92 -169t28.5 -197t-30 -195.5t-92 -164.5t-159.5 -112.5t-234.5 -41.5q-139 0 -238.5 43t-164 114.5t-95.5 164.5t-31 196zM327 1186l258 350h74l264 -354l-14 -35l-283 176l-284 -172z M338 455q0 -102 20.5 -170t58.5 -109t91 -58.5t119 -17.5q63 0 115.5 16.5t90 57.5t58 109.5t20.5 171.5v92q0 102 -20.5 170.5t-58 109.5t-90 58.5t-115.5 17.5q-66 0 -119 -17.5t-91 -59.5t-58.5 -110.5t-20.5 -168.5v-92z" />
<glyph unicode="&#xf5;" horiz-adv-x="1249" d="M102 498q0 100 31 195t94.5 169t163 118t238.5 44q137 0 235.5 -45t162 -119t92 -169t28.5 -197t-30 -195.5t-92 -164.5t-159.5 -112.5t-234.5 -41.5q-139 0 -238.5 43t-164 114.5t-95.5 164.5t-31 196zM286 1260q72 225 236 225q61 0 137 -51q41 -25 72 -38.5t55 -13.5 q39 0 78 28t65 58l31 -34q-78 -213 -196 -213q-55 0 -150 53q-47 27 -84 41t-65 14q-33 0 -71 -21.5t-69 -74.5zM338 455q0 -102 20.5 -170t58.5 -109t91 -58.5t119 -17.5q63 0 115.5 16.5t90 57.5t58 109.5t20.5 171.5v92q0 102 -20.5 170.5t-58 109.5t-90 58.5 t-115.5 17.5q-66 0 -119 -17.5t-91 -59.5t-58.5 -110.5t-20.5 -168.5v-92z" />
<glyph unicode="&#xf6;" horiz-adv-x="1249" d="M102 498q0 100 31 195t94.5 169t163 118t238.5 44q137 0 235.5 -45t162 -119t92 -169t28.5 -197t-30 -195.5t-92 -164.5t-159.5 -112.5t-234.5 -41.5q-139 0 -238.5 43t-164 114.5t-95.5 164.5t-31 196zM305 1360q0 51 37 88t90 37t91 -37t38 -88q0 -55 -37.5 -91 t-91.5 -36q-53 0 -90 36t-37 91zM338 455q0 -102 20.5 -170t58.5 -109t91 -58.5t119 -17.5q63 0 115.5 16.5t90 57.5t58 109.5t20.5 171.5v92q0 102 -20.5 170.5t-58 109.5t-90 58.5t-115.5 17.5q-66 0 -119 -17.5t-91 -59.5t-58.5 -110.5t-20.5 -168.5v-92zM690 1360 q0 51 38 88t87 37q53 0 92 -37t39 -88q0 -55 -37.5 -91t-93.5 -36q-51 0 -88 36t-37 91z" />
<glyph unicode="&#xf7;" horiz-adv-x="1056" d="M61 582v133h934v-133h-934zM424 362q0 47 28.5 83t94.5 36q61 0 90 -35.5t29 -83.5q0 -47 -29 -81.5t-90 -34.5q-66 0 -94.5 34.5t-28.5 81.5zM424 932q0 47 28.5 83t94.5 36q61 0 90 -36t29 -83t-29 -82t-90 -35q-66 0 -94.5 35t-28.5 82z" />
<glyph unicode="&#xf8;" horiz-adv-x="1249" d="M102 498q0 100 31 195t94.5 169t163 118t238.5 44q115 0 209 -35l77 141h109l-102 -182q59 -37 101 -86t69.5 -108.5t41 -126t13.5 -133.5q0 -102 -30 -195.5t-92 -164.5t-159.5 -112.5t-234.5 -41.5q-66 0 -122 10t-106 26l-69 -125h-105l93 168q-113 72 -166.5 187.5 t-53.5 251.5zM338 455q0 -176 61 -258l373 675q-31 16 -67.5 23.5t-77.5 7.5q-66 0 -119 -17.5t-91 -59.5t-58.5 -110.5t-20.5 -168.5v-92zM469 133q35 -18 73 -25.5t85 -7.5q63 0 115.5 16.5t90 57.5t58 109.5t20.5 171.5v92q0 92 -17 157.5t-48 106.5z" />
<glyph unicode="&#xf9;" d="M20 911v93h607v-93q-68 0 -106 -16t-55 -54t-20.5 -100.5t-3.5 -156.5v-129q0 -102 19.5 -170t55.5 -109t87 -58.5t117 -17.5q63 0 112.5 16.5t84 57.5t53 109.5t18.5 171.5v129q0 94 -3 156.5t-20.5 100.5t-55.5 54t-105 16v93h606v-93h-20q-61 0 -94 -16t-49.5 -54 t-19.5 -100.5t-3 -156.5v-66q0 -250 -124 -394t-384 -144q-129 0 -225.5 37.5t-160 107.5t-94 169t-30.5 224v66q0 94 -3 156.5t-19.5 100.5t-49.5 54t-94 16h-21zM410 1409l152 147l313 -385l-45 -53z" />
<glyph unicode="&#xfa;" d="M20 911v93h607v-93q-68 0 -106 -16t-55 -54t-20.5 -100.5t-3.5 -156.5v-129q0 -102 19.5 -170t55.5 -109t87 -58.5t117 -17.5q63 0 112.5 16.5t84 57.5t53 109.5t18.5 171.5v129q0 94 -3 156.5t-20.5 100.5t-55.5 54t-105 16v93h606v-93h-20q-61 0 -94 -16t-49.5 -54 t-19.5 -100.5t-3 -156.5v-66q0 -250 -124 -394t-384 -144q-129 0 -225.5 37.5t-160 107.5t-94 169t-30.5 224v66q0 94 -3 156.5t-19.5 100.5t-49.5 54t-94 16h-21zM574 1171l315 385l152 -147l-420 -289z" />
<glyph unicode="&#xfb;" d="M20 911v93h607v-93q-68 0 -106 -16t-55 -54t-20.5 -100.5t-3.5 -156.5v-129q0 -102 19.5 -170t55.5 -109t87 -58.5t117 -17.5q63 0 112.5 16.5t84 57.5t53 109.5t18.5 171.5v129q0 94 -3 156.5t-20.5 100.5t-55.5 54t-105 16v93h606v-93h-20q-61 0 -94 -16t-49.5 -54 t-19.5 -100.5t-3 -156.5v-66q0 -250 -124 -394t-384 -144q-129 0 -225.5 37.5t-160 107.5t-94 169t-30.5 224v66q0 94 -3 156.5t-19.5 100.5t-49.5 54t-94 16h-21zM419 1186l258 350h74l264 -354l-14 -35l-283 176l-284 -172z" />
<glyph unicode="&#xfc;" d="M20 911v93h607v-93q-68 0 -106 -16t-55 -54t-20.5 -100.5t-3.5 -156.5v-129q0 -102 19.5 -170t55.5 -109t87 -58.5t117 -17.5q63 0 112.5 16.5t84 57.5t53 109.5t18.5 171.5v129q0 94 -3 156.5t-20.5 100.5t-55.5 54t-105 16v93h606v-93h-20q-61 0 -94 -16t-49.5 -54 t-19.5 -100.5t-3 -156.5v-66q0 -250 -124 -394t-384 -144q-129 0 -225.5 37.5t-160 107.5t-94 169t-30.5 224v66q0 94 -3 156.5t-19.5 100.5t-49.5 54t-94 16h-21zM395 1360q0 51 37 88t90 37t91 -37t38 -88q0 -55 -37.5 -91t-91.5 -36q-53 0 -90 36t-37 91zM780 1360 q0 51 38 88t87 37q53 0 92 -37t39 -88q0 -55 -37.5 -91t-93.5 -36q-51 0 -88 36t-37 91z" />
<glyph unicode="&#xfd;" d="M20 911v93h607v-93q-68 0 -106 -16t-55 -54t-20.5 -100.5t-3.5 -156.5v-117q0 -102 19.5 -170t55.5 -109t87 -58t117 -17q63 0 112.5 16t84 57t53 110t18.5 171v117q0 94 -3 156.5t-20.5 100.5t-55.5 54t-105 16v93h606v-93h-20q-61 0 -94 -16t-49.5 -54t-19.5 -100.5 t-3 -156.5v-54q0 -207 -83 -342t-255 -178q57 -31 94 -55.5t58.5 -50t30.5 -58t13 -77.5q2 -31 6.5 -48.5t20.5 -25.5t48 -10t91 -2h4v-93h-589v93q49 0 83.5 3t57 14t33 33.5t10.5 63.5q0 68 -24.5 104t-65.5 55t-92.5 28.5t-102.5 23.5q-80 20 -145.5 58t-112.5 99.5 t-72.5 151t-25.5 213.5v54q0 94 -3 156.5t-19.5 100.5t-49.5 54t-94 16h-21zM574 1171l315 385l152 -147l-420 -289z" />
<glyph unicode="&#xfe;" horiz-adv-x="1267" d="M-61 -317q68 0 105.5 15t55 52t20.5 99.5t3 156.5v1114q0 94 -3 156.5t-20.5 99.5t-55.5 52.5t-105 15.5v92h600v-92h-21q-61 0 -93 -15.5t-47.5 -52.5t-17.5 -99.5t-2 -156.5v-157q57 29 129 45t164 16q135 0 232.5 -36t160 -102.5t92 -161.5t29.5 -214t-29.5 -213 t-93 -160.5t-162 -101.5t-235.5 -35q-170 0 -287 57v-51q0 -94 2 -156.5t17.5 -99.5t47.5 -52t93 -15h21v-93h-600v93zM358 475q0 -102 20.5 -169.5t57.5 -108.5t90.5 -58.5t118.5 -17.5q63 0 115.5 16.5t90.5 57.5t58.5 109.5t20.5 170.5v72q0 102 -20.5 170.5t-58.5 109.5 t-90 58.5t-116 17.5q-66 0 -119 -17.5t-90 -59.5t-57.5 -110.5t-20.5 -168.5v-72z" />
<glyph unicode="&#xff;" d="M20 911v93h607v-93q-68 0 -106 -16t-55 -54t-20.5 -100.5t-3.5 -156.5v-117q0 -102 19.5 -170t55.5 -109t87 -58t117 -17q63 0 112.5 16t84 57t53 110t18.5 171v117q0 94 -3 156.5t-20.5 100.5t-55.5 54t-105 16v93h606v-93h-20q-61 0 -94 -16t-49.5 -54t-19.5 -100.5 t-3 -156.5v-54q0 -207 -83 -342t-255 -178q57 -31 94 -55.5t58.5 -50t30.5 -58t13 -77.5q2 -31 6.5 -48.5t20.5 -25.5t48 -10t91 -2h4v-93h-589v93q49 0 83.5 3t57 14t33 33.5t10.5 63.5q0 68 -24.5 104t-65.5 55t-92.5 28.5t-102.5 23.5q-80 20 -145.5 58t-112.5 99.5 t-72.5 151t-25.5 213.5v54q0 94 -3 156.5t-19.5 100.5t-49.5 54t-94 16h-21zM395 1360q0 51 37 88t90 37t91 -37t38 -88q0 -55 -37.5 -91t-91.5 -36q-53 0 -90 36t-37 91zM780 1360q0 51 38 88t87 37q53 0 92 -37t39 -88q0 -55 -37.5 -91t-93.5 -36q-51 0 -88 36t-37 91z " />
<glyph unicode="&#x152;" horiz-adv-x="2117" d="M143 518v479q0 252 154 395.5t440 143.5h1340v-113h-654q-49 0 -76.5 -19.5t-41 -59t-15.5 -101t-2 -145.5v-228h559v-94h-559v-305q0 -102 32 -170t82 -108.5t113.5 -58t126.5 -17.5h435v-117h-435q-291 0 -442 147q-76 -82 -192.5 -124.5t-270.5 -42.5 q-287 0 -440.5 143t-153.5 395zM379 455q0 -102 31.5 -170t83 -109t115.5 -58.5t130 -17.5q53 0 106.5 12.5t100.5 40t83 73.5t52 116q-29 90 -28 195v561q0 84 -2 145.5t-15.5 101t-41 59t-76.5 19.5h-179q-66 0 -130 -18.5t-115.5 -61.5t-83 -112.5t-31.5 -169.5v-606z " />
<glyph unicode="&#x153;" horiz-adv-x="2052" d="M102 498q0 100 31 195t94.5 169t162.5 118t239 44q139 0 236.5 -45t156.5 -119q66 78 166 121t235 43q137 0 236.5 -43t164 -113.5t95.5 -165t31 -194.5v-62h-805q0 -55 19.5 -117.5t62.5 -115.5t111.5 -89t166.5 -36q100 0 234 35l16 -68q-45 -20 -83 -34.5t-73.5 -23.5 t-71.5 -13t-79 -4q-135 0 -240.5 40.5t-177.5 124.5q-61 -76 -159.5 -120.5t-239.5 -44.5q-139 0 -238.5 43t-164 114.5t-95.5 164.5t-31 196zM338 455q0 -102 20.5 -170t58.5 -109t91 -58.5t119 -17.5q63 0 115.5 16.5t89 57.5t57 109.5t20.5 171.5v92q0 102 -20.5 170.5 t-57 109.5t-89 58.5t-115.5 17.5q-66 0 -119 -17.5t-91 -59.5t-58.5 -110.5t-20.5 -168.5v-92zM1145 573h569q0 168 -77.5 249t-200.5 81q-78 0 -132.5 -28.5t-90 -75.5t-52 -105.5t-16.5 -120.5z" />
<glyph unicode="&#x178;" horiz-adv-x="1517" d="M-20 1444v92h606v-92q-68 0 -106 -16.5t-55 -54.5t-20.5 -100.5t-3.5 -156.5v-115q0 -102 32 -169.5t83 -108.5t115.5 -58.5t130.5 -17.5q63 0 125.5 16.5t114 57.5t83 109.5t31.5 170.5v115q0 94 -3 156.5t-20.5 100.5t-55.5 54.5t-105 16.5v92h606v-94h-20 q-61 0 -94 -15.5t-49.5 -52.5t-19.5 -99.5t-3 -156.5v-53q0 -223 -122 -363.5t-349 -169.5v-112q0 -94 3 -156.5t19.5 -100.5t49 -54.5t94.5 -16.5h20v-92h-606v92q68 0 105.5 16.5t55 54.5t20.5 100.5t3 156.5v112q-236 31 -357.5 170.5t-121.5 362.5v51q0 94 -3 156.5 t-19.5 100.5t-49.5 54.5t-94 16.5h-20zM438 1811q0 51 37 88t90 37t91 -37t38 -88q0 -55 -37.5 -91t-91.5 -36q-53 0 -90 36t-37 91zM823 1811q0 51 38 88t87 37q53 0 92 -37t39 -88q0 -55 -37.5 -91t-93.5 -36q-51 0 -88 36t-37 91z" />
<glyph unicode="&#x2c6;" horiz-adv-x="800" d="M102 1186l258 350h74l264 -354l-14 -35l-283 176l-284 -172z" />
<glyph unicode="&#x2dc;" horiz-adv-x="878" d="M102 1260q72 225 236 225q61 0 137 -51q41 -25 72 -38.5t55 -13.5q39 0 78 28t65 58l31 -34q-78 -213 -196 -213q-55 0 -150 53q-47 27 -84 41t-65 14q-33 0 -71 -21.5t-69 -74.5z" />
<glyph unicode="&#x2000;" horiz-adv-x="1024" />
<glyph unicode="&#x2001;" horiz-adv-x="2048" />
<glyph unicode="&#x2002;" horiz-adv-x="1024" />
<glyph unicode="&#x2003;" horiz-adv-x="2048" />
<glyph unicode="&#x2004;" horiz-adv-x="682" />
<glyph unicode="&#x2005;" horiz-adv-x="512" />
<glyph unicode="&#x2006;" horiz-adv-x="341" />
<glyph unicode="&#x2007;" horiz-adv-x="341" />
<glyph unicode="&#x2008;" horiz-adv-x="256" />
<glyph unicode="&#x2009;" horiz-adv-x="409" />
<glyph unicode="&#x200a;" horiz-adv-x="113" />
<glyph unicode="&#x2010;" horiz-adv-x="634" d="M61 563v154h512v-154h-512z" />
<glyph unicode="&#x2011;" horiz-adv-x="634" d="M61 563v154h512v-154h-512z" />
<glyph unicode="&#x2012;" horiz-adv-x="634" d="M61 563v154h512v-154h-512z" />
<glyph unicode="&#x2013;" horiz-adv-x="944" d="M61 563v154h822v-154h-822z" />
<glyph unicode="&#x2014;" horiz-adv-x="1255" d="M61 563v154h1133v-154h-1133z" />
<glyph unicode="&#x2018;" horiz-adv-x="358" d="M0 1536h180l137 -412h-57z" />
<glyph unicode="&#x2019;" horiz-adv-x="358" d="M41 1124l137 412h180l-260 -412h-57z" />
<glyph unicode="&#x201a;" horiz-adv-x="317" d="M0 -205l137 412h180l-260 -412h-57z" />
<glyph unicode="&#x201c;" horiz-adv-x="634" d="M0 1536h180l162 -412h-57zM276 1536h181l137 -412h-57z" />
<glyph unicode="&#x201d;" horiz-adv-x="634" d="M41 1124l137 412h180l-260 -412h-57zM293 1124l162 412h180l-285 -412h-57z" />
<glyph unicode="&#x201e;" horiz-adv-x="593" d="M0 -207l137 412h180l-260 -412h-57zM252 -207l162 412h180l-285 -412h-57z" />
<glyph unicode="&#x2022;" horiz-adv-x="755" d="M61 649q0 66 25 123t68 100t100 68t123 25t124 -25t101 -68t67.5 -100t24.5 -123t-24.5 -123t-67.5 -100t-101.5 -67.5t-123.5 -24.5q-66 0 -123 24.5t-100 67.5t-68 100t-25 123z" />
<glyph unicode="&#x2026;" horiz-adv-x="1128" d="M61 106q0 47 30 83t91 36q66 0 93.5 -37.5t27.5 -83.5q0 -47 -28.5 -80.5t-92.5 -33.5q-63 0 -92 34.5t-29 81.5zM451 106q0 47 29.5 83t90.5 36q66 0 93.5 -37.5t27.5 -83.5q0 -47 -28.5 -80.5t-92.5 -33.5q-63 0 -91.5 34.5t-28.5 81.5zM825 106q0 47 30 83t91 36 q66 0 93.5 -37.5t27.5 -83.5q0 -47 -28.5 -80.5t-92.5 -33.5q-63 0 -92 34.5t-29 81.5z" />
<glyph unicode="&#x202f;" horiz-adv-x="409" />
<glyph unicode="&#x2039;" horiz-adv-x="598" d="M102 506q0 14 8.5 30.5t43.5 57.5q39 45 90 105.5t97 115.5t80 93t38 38q10 0 24.5 -5t10.5 -15q-23 -43 -52.5 -115t-56.5 -140.5t-44 -117.5l-17 -49q0 -41 21.5 -98.5t49 -116t56 -111.5t43.5 -84q6 -14 -9.5 -20t-25.5 -6t-85 90t-204 237q-45 49 -56.5 73t-11.5 38z " />
<glyph unicode="&#x203a;" horiz-adv-x="598" d="M104 111q14 31 43 84t56.5 111.5t49 115.5t21.5 98l-18 49t-44 118t-55.5 140.5t-52.5 114.5q-4 10 10.5 15.5t24.5 5.5q4 0 38 -38t80 -93.5t97.5 -116t89.5 -105.5q35 -41 43.5 -57t8.5 -31q0 -14 -11.5 -37.5t-56.5 -72.5q-129 -147 -203.5 -237.5t-85.5 -90.5 q-10 0 -25.5 6t-9.5 21z" />
<glyph unicode="&#x205f;" horiz-adv-x="512" />
<glyph unicode="&#x20ac;" d="M102 573v86h107q-4 25 -4 49.5v51.5v35.5t2 35.5h-105v87h113q18 139 69.5 253.5t130.5 196.5t183 127t231 45q72 0 132.5 -12t113.5 -27.5t103.5 -28t103.5 -12.5q-2 -63 4 -133q4 -59 14.5 -137t28.5 -164h-61q-57 203 -147.5 291t-239.5 88q-96 0 -165 -33t-115 -95.5 t-74.5 -152.5t-43.5 -206h623l-27 -87h-604v-75.5t1 -47t2 -29.5t1 -20h533l-27 -86h-493q20 -104 46.5 -188t68.5 -142.5t106.5 -90t160.5 -31.5q76 0 135.5 20.5t106.5 66.5t83 117.5t65 174.5h61q-18 -86 -28.5 -164t-14.5 -137q-6 -70 -4 -133q-53 0 -103.5 -12.5 t-104.5 -28t-113.5 -27.5t-133.5 -12q-127 0 -229 43t-179 120.5t-126 186t-70 237.5h-117z" />
<glyph unicode="&#x2122;" horiz-adv-x="1849" d="M61 1133v112h146v291h182v-291h143v-112h-143v-271q0 -49 2 -83t10.5 -54t26.5 -29.5t51 -9.5q57 0 68.5 38t11.5 138v39q0 160 83 252t243 92q78 0 136 -21.5t99 -58.5q84 84 232 84q176 0 249.5 -92t73.5 -250v-41q0 -98 17.5 -143t95.5 -37v-96h-404v96q39 0 61.5 8 t33 28.5t12.5 54.5t2 83v84q0 111 -31.5 152t-97.5 41q-74 0 -115 -43t-41 -150v-74q0 -49 1 -84.5t10.5 -59.5t33 -33t68.5 -7v-96h-406v96q39 0 60.5 8t33 25.5t14.5 46.5t3 70v106q0 104 -31.5 146t-93.5 42q-78 0 -120 -41.5t-42 -148.5v-78q0 -49 2 -83t12.5 -54 t33 -29.5t63.5 -9.5v-96h-754v96q41 0 63.5 9.5t33 29.5t12.5 54t2 83v271h-146z" />
<glyph unicode="&#x25fc;" horiz-adv-x="1003" d="M0 0v1004h1004v-1004h-1004z" />
<glyph unicode="&#xfb01;" horiz-adv-x="1490" d="M-61 -317h20q61 0 94 16t49.5 54t19.5 100.5t3 156.5v989q0 248 150.5 391.5t439.5 145.5h235v-119h-235q-63 0 -127 -17.5t-114 -58.5t-82 -109.5t-32 -168.5v-199h1067v-94q-68 0 -105.5 -16.5t-55 -54t-20.5 -100t-3 -157.5v-22q0 -94 3 -156.5t19.5 -100.5 t49.5 -54.5t94 -16.5h21v-92h-607v92q68 0 106 16.5t55 54.5t20.5 100.5t3.5 156.5v22q0 94 -3.5 157t-19.5 100.5t-49 54t-94 16.5h-482v-760q0 -84 2.5 -146.5t14.5 -102.5t39.5 -59t79.5 -19h57v-93h-614v93zM969 1190q0 63 44 108t107 45t108.5 -45t45.5 -108 t-45 -108.5t-109 -45.5q-63 0 -107 45.5t-44 108.5z" />
<glyph unicode="&#xfb02;" horiz-adv-x="1384" d="M-61 -317h20q61 0 94 16t49.5 54t19.5 100.5t3 156.5v989q0 248 150.5 392.5t439.5 144.5h463v-1116q0 -94 3 -156.5t19.5 -100.5t49 -54.5t93.5 -16.5h21v-92h-606v92q68 0 105.5 16.5t55 54.5t20.5 100.5t3 156.5v997h-227q-63 0 -127 -17.5t-114 -58.5t-82 -109.5 t-32 -168.5v-285h453v-94h-453v-674q0 -84 2.5 -146.5t14.5 -102.5t39.5 -59t79.5 -19h57v-93h-614v93z" />
<glyph unicode="&#xfb03;" horiz-adv-x="2211" d="M-61 -317h20q61 0 94 16t49.5 54t19.5 100.5t3 156.5v989q0 248 150.5 391.5t439.5 145.5h192v-119h-192q-63 0 -127 -17.5t-114 -58.5t-82 -109.5t-32 -168.5v-199h486v135q0 248 150.5 391.5t439.5 145.5h235v-119h-235q-63 0 -127 -17.5t-114 -58.5t-82 -109.5 t-32 -168.5v-199h1067v-94q-68 0 -105.5 -16.5t-55 -54t-20.5 -100t-3 -157.5v-22q0 -94 3 -156.5t19.5 -100.5t49 -54.5t94.5 -16.5h20v-92h-606v92q68 0 106 16.5t55 54.5t20.5 100.5t3.5 156.5v22q0 94 -3.5 157t-19.5 100.5t-49 54t-94 16.5h-482v-760q0 -84 2 -145.5 t14.5 -101t40 -59t79.5 -19.5h57v-95h-615v93h21q61 0 94 16t49.5 54t19.5 100.5t3 156.5v760h-486v-760q0 -84 2.5 -145.5t14.5 -101t39.5 -59t79.5 -19.5h57v-95h-614v93zM1690 1190q0 63 44 108t107 45t108.5 -45t45.5 -108t-45 -108.5t-109 -45.5q-63 0 -107 45.5 t-44 108.5z" />
<glyph unicode="&#xfb04;" horiz-adv-x="2084" d="M-61 -317h20q61 0 94 16t49.5 54t19.5 100.5t3 156.5v989q0 248 150.5 392.5t439.5 144.5h192v-119h-192q-63 0 -127 -17.5t-114 -58.5t-82 -109.5t-32 -168.5v-285h465v221q0 248 150.5 392.5t439.5 144.5h463v-1116q0 -94 3 -156.5t19.5 -100.5t49 -54.5t94.5 -16.5h20 v-92h-606v92q68 0 106 16.5t55 54.5t20 100.5t3 156.5v997h-227q-63 0 -126.5 -17.5t-114 -58.5t-82 -109.5t-31.5 -168.5v-285h452v-94h-452v-674q0 -84 2 -146.5t14.5 -102.5t40 -59t78.5 -19h57v-93h-614v93h20q61 0 94 16t49.5 54t19.5 100.5t3 156.5v674h-465v-674 q0 -84 2.5 -146.5t14.5 -102.5t39.5 -59t79.5 -19h57v-93h-614v93z" />
</font>
</defs>
</svg>
